G04 EAGLE Gerber RS-274X export*
G75*
%MOMM*%
%FSLAX34Y34*%
%LPD*%
%INBottom Copper*%
%IPPOS*%
%AMOC8*
5,1,8,0,0,1.08239X$1,22.5*%
G01*
%ADD10C,1.879600*%
%ADD11R,1.500000X1.000000*%
%ADD12C,0.756400*%
%ADD13C,0.304800*%


D10*
X370840Y203200D03*
X345440Y203200D03*
X320040Y203200D03*
X294640Y203200D03*
X269240Y203200D03*
X243840Y203200D03*
X218440Y203200D03*
X370840Y50800D03*
X345440Y50800D03*
X320040Y50800D03*
X294640Y50800D03*
X269240Y50800D03*
X243840Y50800D03*
X218440Y50800D03*
X29210Y139700D03*
X29210Y114300D03*
X29210Y76200D03*
X29210Y50800D03*
D11*
X116900Y51200D03*
X116900Y76200D03*
X116900Y101200D03*
X60900Y101200D03*
X60900Y76200D03*
X60900Y51200D03*
D10*
X29210Y203200D03*
X29210Y177800D03*
D12*
X190500Y203200D03*
X190500Y152400D03*
D13*
X190500Y203200D01*
X190500Y152400D02*
X241300Y152400D01*
X345440Y50800D01*
X190500Y203200D02*
X101600Y203200D01*
D12*
X101600Y203200D03*
X190500Y50800D03*
X152400Y63500D03*
D13*
X145570Y53629D02*
X145570Y47971D01*
X149571Y43970D01*
X155229Y43970D01*
X152400Y60459D02*
X152400Y63500D01*
X152400Y60459D02*
X145570Y53629D01*
X155229Y43970D02*
X162059Y50800D01*
X190500Y50800D01*
D12*
X63500Y203200D03*
X50800Y127000D03*
D13*
X63500Y200007D02*
X63500Y203200D01*
X63500Y200007D02*
X56328Y192835D01*
X56328Y132528D02*
X50800Y127000D01*
X56328Y132528D02*
X56328Y192835D01*
D12*
X152400Y127000D03*
X190500Y114300D03*
D13*
X177800Y127000D02*
X152400Y127000D01*
X177800Y127000D02*
X190500Y114300D01*
X116900Y101200D02*
X114300Y101200D01*
X66329Y210030D02*
X47971Y210030D01*
X41141Y203200D01*
X29210Y203200D01*
X60900Y101200D02*
X63100Y101200D01*
X76200Y114300D01*
X101600Y114300D01*
X114300Y101600D01*
X114300Y101200D01*
X70330Y206029D02*
X66329Y210030D01*
X70330Y206029D02*
X70330Y200371D01*
X58670Y119130D02*
X56670Y117129D01*
X56670Y105430D02*
X60900Y101200D01*
X56670Y105430D02*
X56670Y117129D01*
X58670Y119130D02*
X58670Y128405D01*
X60900Y130634D01*
X60900Y162500D01*
X63500Y165100D01*
D12*
X63500Y165100D03*
D13*
X63500Y193541D01*
X70330Y200371D01*
D12*
X152400Y50800D03*
D13*
X170970Y69370D01*
X238259Y76200D02*
X254000Y76200D01*
X238259Y76200D02*
X231429Y69370D01*
X170970Y69370D01*
D12*
X254000Y76200D03*
X254000Y114300D03*
D13*
X238259Y114300D01*
X231429Y107470D01*
X123170Y107470D02*
X116900Y101200D01*
X123170Y107470D02*
X231429Y107470D01*
D12*
X152400Y88900D03*
D13*
X215900Y88900D01*
D12*
X215900Y88900D03*
X114300Y165100D03*
D13*
X177800Y165100D01*
X183670Y149571D02*
X187671Y145570D01*
X183670Y159230D02*
X177800Y165100D01*
X197330Y145570D02*
X203200Y139700D01*
X183670Y149571D02*
X183670Y159230D01*
X187671Y145570D02*
X197330Y145570D01*
D12*
X203200Y139700D03*
X177800Y76200D03*
D13*
X228600Y76200D01*
D12*
X228600Y76200D03*
X228600Y114300D03*
X88900Y165100D03*
D13*
X215900Y127000D02*
X228600Y114300D01*
X104641Y165100D02*
X88900Y165100D01*
X104641Y165100D02*
X111471Y158270D01*
X159230Y158270D01*
X190500Y127000D01*
X215900Y127000D01*
D12*
X139700Y88900D03*
D13*
X127000Y76200D01*
X116900Y76200D01*
X105584Y54289D02*
X95811Y44516D01*
X81989Y44516D01*
X72216Y54289D01*
X105584Y64884D02*
X116900Y76200D01*
X105584Y64884D02*
X105584Y54289D01*
X72216Y54289D02*
X72216Y64884D01*
X60900Y76200D01*
D12*
X63500Y114300D03*
X152400Y177800D03*
D13*
X63500Y117493D02*
X63500Y114300D01*
X70330Y171930D02*
X76200Y177800D01*
X70330Y124323D02*
X63500Y117493D01*
X70330Y124323D02*
X70330Y171930D01*
X76200Y177800D02*
X152400Y177800D01*
X54610Y88900D02*
X29210Y114300D01*
X54610Y88900D02*
X72216Y88900D01*
X72216Y98111D01*
X81989Y107884D01*
X95811Y107884D01*
X105584Y98111D01*
X105584Y95706D01*
X108138Y93152D01*
X134293Y93152D01*
X136871Y95730D01*
X272570Y95730D01*
X320040Y50800D01*
M02*
