G04 EAGLE Gerber RS-274X export*
G75*
%MOMM*%
%FSLAX34Y34*%
%LPD*%
%IN*%
%IPPOS*%
%AMOC8*
5,1,8,0,0,1.08239X$1,22.5*%
G01*
%ADD10C,0.254000*%


D10*
X7620Y29210D02*
X392430Y29210D01*
X392430Y224790D01*
X7620Y224790D01*
X7620Y29210D01*
X88619Y96200D02*
X88061Y96137D01*
X87514Y96012D01*
X86984Y95827D01*
X86478Y95583D01*
X86002Y95284D01*
X85563Y94934D01*
X85166Y94537D01*
X84816Y94098D01*
X84517Y93622D01*
X84273Y93116D01*
X84088Y92586D01*
X83963Y92039D01*
X83900Y91481D01*
X83900Y90919D01*
X83963Y90361D01*
X84088Y89814D01*
X84273Y89284D01*
X84517Y88778D01*
X84816Y88302D01*
X85166Y87863D01*
X85563Y87466D01*
X86002Y87116D01*
X86478Y86817D01*
X86984Y86573D01*
X87514Y86388D01*
X88061Y86263D01*
X88619Y86200D01*
X89181Y86200D01*
X89739Y86263D01*
X90286Y86388D01*
X90816Y86573D01*
X91322Y86817D01*
X91798Y87116D01*
X92237Y87466D01*
X92634Y87863D01*
X92984Y88302D01*
X93283Y88778D01*
X93527Y89284D01*
X93712Y89814D01*
X93837Y90361D01*
X93900Y90919D01*
X93900Y91481D01*
X93837Y92039D01*
X93712Y92586D01*
X93527Y93116D01*
X93283Y93622D01*
X92984Y94098D01*
X92634Y94537D01*
X92237Y94934D01*
X91798Y95284D01*
X91322Y95583D01*
X90816Y95827D01*
X90286Y96012D01*
X89739Y96137D01*
X89181Y96200D01*
X88619Y96200D01*
X88619Y66200D02*
X88061Y66137D01*
X87514Y66012D01*
X86984Y65827D01*
X86478Y65583D01*
X86002Y65284D01*
X85563Y64934D01*
X85166Y64537D01*
X84816Y64098D01*
X84517Y63622D01*
X84273Y63116D01*
X84088Y62586D01*
X83963Y62039D01*
X83900Y61481D01*
X83900Y60919D01*
X83963Y60361D01*
X84088Y59814D01*
X84273Y59284D01*
X84517Y58778D01*
X84816Y58302D01*
X85166Y57863D01*
X85563Y57466D01*
X86002Y57116D01*
X86478Y56817D01*
X86984Y56573D01*
X87514Y56388D01*
X88061Y56263D01*
X88619Y56200D01*
X89181Y56200D01*
X89739Y56263D01*
X90286Y56388D01*
X90816Y56573D01*
X91322Y56817D01*
X91798Y57116D01*
X92237Y57466D01*
X92634Y57863D01*
X92984Y58302D01*
X93283Y58778D01*
X93527Y59284D01*
X93712Y59814D01*
X93837Y60361D01*
X93900Y60919D01*
X93900Y61481D01*
X93837Y62039D01*
X93712Y62586D01*
X93527Y63116D01*
X93283Y63622D01*
X92984Y64098D01*
X92634Y64537D01*
X92237Y64934D01*
X91798Y65284D01*
X91322Y65583D01*
X90816Y65827D01*
X90286Y66012D01*
X89739Y66137D01*
X89181Y66200D01*
X88619Y66200D01*
M02*
