G04 EAGLE Gerber RS-274X export*
G75*
%MOMM*%
%FSLAX34Y34*%
%LPD*%
%INSilkscreen Bottom*%
%IPPOS*%
%AMOC8*
5,1,8,0,0,1.08239X$1,22.5*%
G01*
%ADD10C,0.127000*%


D10*
X106400Y40200D02*
X106400Y112200D01*
X71400Y112200D01*
X71400Y40200D01*
X106400Y40200D01*
X97788Y69975D02*
X97714Y69977D01*
X97641Y69983D01*
X97567Y69992D01*
X97495Y70006D01*
X97423Y70023D01*
X97352Y70044D01*
X97282Y70069D01*
X97214Y70097D01*
X97147Y70129D01*
X97083Y70164D01*
X97020Y70203D01*
X96959Y70244D01*
X96900Y70289D01*
X96844Y70337D01*
X96790Y70388D01*
X96739Y70442D01*
X96691Y70498D01*
X96646Y70557D01*
X96605Y70618D01*
X96566Y70681D01*
X96531Y70745D01*
X96499Y70812D01*
X96471Y70880D01*
X96446Y70950D01*
X96425Y71021D01*
X96408Y71093D01*
X96394Y71165D01*
X96385Y71239D01*
X96379Y71312D01*
X96377Y71386D01*
X97788Y69975D02*
X97895Y69977D01*
X98002Y69983D01*
X98108Y69992D01*
X98214Y70006D01*
X98320Y70023D01*
X98425Y70044D01*
X98529Y70069D01*
X98632Y70097D01*
X98734Y70129D01*
X98835Y70165D01*
X98935Y70204D01*
X99033Y70247D01*
X99129Y70294D01*
X99224Y70343D01*
X99316Y70397D01*
X99407Y70453D01*
X99496Y70513D01*
X99583Y70576D01*
X99667Y70642D01*
X99749Y70711D01*
X99828Y70782D01*
X99905Y70857D01*
X99728Y74914D02*
X99726Y74988D01*
X99720Y75061D01*
X99711Y75135D01*
X99697Y75207D01*
X99680Y75279D01*
X99659Y75350D01*
X99634Y75420D01*
X99606Y75488D01*
X99574Y75555D01*
X99539Y75620D01*
X99500Y75682D01*
X99459Y75743D01*
X99414Y75802D01*
X99366Y75858D01*
X99315Y75912D01*
X99261Y75963D01*
X99205Y76011D01*
X99146Y76056D01*
X99085Y76097D01*
X99023Y76136D01*
X98958Y76171D01*
X98891Y76203D01*
X98823Y76231D01*
X98753Y76256D01*
X98682Y76277D01*
X98610Y76294D01*
X98538Y76308D01*
X98464Y76317D01*
X98391Y76323D01*
X98317Y76325D01*
X98217Y76323D01*
X98117Y76317D01*
X98017Y76308D01*
X97918Y76295D01*
X97819Y76278D01*
X97721Y76257D01*
X97624Y76233D01*
X97528Y76205D01*
X97433Y76173D01*
X97339Y76138D01*
X97247Y76099D01*
X97156Y76057D01*
X97067Y76011D01*
X96979Y75962D01*
X96894Y75910D01*
X96811Y75854D01*
X96729Y75796D01*
X99023Y73679D02*
X99086Y73719D01*
X99147Y73761D01*
X99205Y73807D01*
X99261Y73856D01*
X99315Y73908D01*
X99366Y73962D01*
X99414Y74019D01*
X99459Y74078D01*
X99501Y74139D01*
X99539Y74203D01*
X99574Y74269D01*
X99606Y74336D01*
X99634Y74405D01*
X99659Y74475D01*
X99680Y74546D01*
X99697Y74619D01*
X99711Y74692D01*
X99720Y74765D01*
X99726Y74840D01*
X99728Y74914D01*
X97082Y72621D02*
X97019Y72581D01*
X96958Y72539D01*
X96900Y72493D01*
X96844Y72444D01*
X96790Y72392D01*
X96739Y72338D01*
X96691Y72281D01*
X96646Y72222D01*
X96604Y72161D01*
X96566Y72097D01*
X96531Y72031D01*
X96499Y71964D01*
X96471Y71895D01*
X96446Y71825D01*
X96425Y71754D01*
X96408Y71681D01*
X96394Y71608D01*
X96385Y71535D01*
X96379Y71460D01*
X96377Y71386D01*
X97083Y72621D02*
X99023Y73679D01*
X93420Y76325D02*
X92008Y69975D01*
X90597Y74208D01*
X89186Y69975D01*
X87775Y76325D01*
M02*
