G04 EAGLE Gerber RS-274X export*
G75*
%MOMM*%
%FSLAX34Y34*%
%LPD*%
%INSoldermask Top*%
%IPPOS*%
%AMOC8*
5,1,8,0,0,1.08239X$1,22.5*%
G01*
%ADD10R,1.113200X1.423200*%
%ADD11C,2.082800*%
%ADD12R,2.438400X1.422400*%
%ADD13R,2.403200X3.803200*%
%ADD14C,1.203200*%
%ADD15R,1.403200X0.753200*%
%ADD16R,1.403200X1.603200*%
%ADD17R,1.803200X2.003200*%
%ADD18R,2.003200X1.803200*%
%ADD19C,0.959600*%


D10*
X168775Y101600D03*
X136025Y101600D03*
D11*
X370840Y203200D03*
X345440Y203200D03*
X320040Y203200D03*
X294640Y203200D03*
X269240Y203200D03*
X243840Y203200D03*
X218440Y203200D03*
X370840Y50800D03*
X345440Y50800D03*
X320040Y50800D03*
X294640Y50800D03*
X269240Y50800D03*
X243840Y50800D03*
X218440Y50800D03*
X29210Y139700D03*
X29210Y114300D03*
X29210Y76200D03*
X29210Y50800D03*
D12*
X57912Y98044D03*
X57912Y74930D03*
X57912Y51816D03*
D13*
X119890Y74930D03*
D14*
X88900Y91200D03*
X88900Y61200D03*
D15*
X139399Y73000D03*
X139399Y63500D03*
X139399Y54000D03*
X165401Y54000D03*
X165401Y73000D03*
D16*
X73900Y127000D03*
X103900Y127000D03*
D17*
X166400Y177800D03*
X138400Y177800D03*
D11*
X29210Y203200D03*
X29210Y177800D03*
D17*
X166400Y152400D03*
X138400Y152400D03*
X166400Y203200D03*
X138400Y203200D03*
X115600Y203200D03*
X87600Y203200D03*
D18*
X114300Y151100D03*
X114300Y179100D03*
X88900Y151100D03*
X88900Y179100D03*
X63500Y151100D03*
X63500Y179100D03*
D17*
X138400Y127000D03*
X166400Y127000D03*
D19*
X190500Y203200D03*
X190500Y152400D03*
X101600Y203200D03*
X190500Y50800D03*
X152400Y63500D03*
X63500Y203200D03*
X50800Y127000D03*
X152400Y127000D03*
X190500Y114300D03*
X63500Y165100D03*
X152400Y50800D03*
X254000Y76200D03*
X254000Y114300D03*
X152400Y88900D03*
X215900Y88900D03*
X114300Y165100D03*
X203200Y139700D03*
X177800Y76200D03*
X228600Y76200D03*
X228600Y114300D03*
X88900Y165100D03*
X139700Y88900D03*
X63500Y114300D03*
X152400Y177800D03*
M02*
