G04 EAGLE Gerber RS-274X export*
G75*
%MOMM*%
%FSLAX34Y34*%
%LPD*%
%INSilkscreen Top*%
%IPPOS*%
%AMOC8*
5,1,8,0,0,1.08239X$1,22.5*%
G01*
%ADD10C,0.050800*%
%ADD11C,0.076200*%
%ADD12C,0.127000*%
%ADD13C,0.152400*%
%ADD14R,0.200000X1.400000*%
%ADD15C,0.203200*%


D10*
X41656Y173431D02*
X41656Y174193D01*
X44196Y174193D01*
X44196Y172669D01*
X44194Y172608D01*
X44189Y172547D01*
X44179Y172486D01*
X44166Y172426D01*
X44150Y172367D01*
X44130Y172309D01*
X44106Y172252D01*
X44080Y172197D01*
X44049Y172143D01*
X44016Y172092D01*
X43980Y172042D01*
X43940Y171995D01*
X43898Y171951D01*
X43854Y171909D01*
X43807Y171869D01*
X43757Y171833D01*
X43706Y171800D01*
X43652Y171769D01*
X43597Y171743D01*
X43540Y171719D01*
X43482Y171699D01*
X43423Y171683D01*
X43363Y171670D01*
X43302Y171660D01*
X43241Y171655D01*
X43180Y171653D01*
X40640Y171653D01*
X40579Y171655D01*
X40518Y171660D01*
X40457Y171670D01*
X40397Y171683D01*
X40338Y171699D01*
X40280Y171719D01*
X40223Y171743D01*
X40168Y171769D01*
X40114Y171800D01*
X40063Y171833D01*
X40013Y171869D01*
X39966Y171909D01*
X39922Y171951D01*
X39880Y171995D01*
X39840Y172042D01*
X39804Y172092D01*
X39771Y172143D01*
X39740Y172197D01*
X39714Y172252D01*
X39690Y172309D01*
X39670Y172367D01*
X39654Y172426D01*
X39641Y172486D01*
X39631Y172547D01*
X39626Y172608D01*
X39624Y172669D01*
X39624Y174193D01*
X39624Y176530D02*
X44196Y176530D01*
X44196Y179070D02*
X39624Y176530D01*
X39624Y179070D02*
X44196Y179070D01*
X44196Y181407D02*
X39624Y181407D01*
X39624Y182677D01*
X39626Y182746D01*
X39631Y182814D01*
X39641Y182882D01*
X39654Y182950D01*
X39670Y183017D01*
X39690Y183083D01*
X39714Y183147D01*
X39741Y183210D01*
X39772Y183272D01*
X39806Y183332D01*
X39843Y183390D01*
X39883Y183446D01*
X39926Y183499D01*
X39972Y183550D01*
X40021Y183599D01*
X40072Y183645D01*
X40125Y183688D01*
X40181Y183728D01*
X40239Y183765D01*
X40299Y183799D01*
X40361Y183830D01*
X40424Y183857D01*
X40488Y183881D01*
X40554Y183901D01*
X40621Y183917D01*
X40689Y183930D01*
X40757Y183940D01*
X40825Y183945D01*
X40894Y183947D01*
X42926Y183947D01*
X42995Y183945D01*
X43063Y183940D01*
X43131Y183930D01*
X43199Y183917D01*
X43266Y183901D01*
X43332Y183881D01*
X43396Y183857D01*
X43459Y183830D01*
X43521Y183799D01*
X43581Y183765D01*
X43639Y183728D01*
X43695Y183688D01*
X43748Y183645D01*
X43799Y183599D01*
X43848Y183550D01*
X43894Y183499D01*
X43937Y183446D01*
X43977Y183390D01*
X44014Y183332D01*
X44048Y183272D01*
X44079Y183210D01*
X44106Y183147D01*
X44130Y183083D01*
X44150Y183017D01*
X44166Y182950D01*
X44179Y182882D01*
X44189Y182814D01*
X44194Y182746D01*
X44196Y182677D01*
X44196Y181407D01*
X351231Y70104D02*
X351993Y70104D01*
X351993Y67564D01*
X350469Y67564D01*
X350408Y67566D01*
X350347Y67571D01*
X350286Y67581D01*
X350226Y67594D01*
X350167Y67610D01*
X350109Y67630D01*
X350052Y67654D01*
X349997Y67680D01*
X349943Y67711D01*
X349892Y67744D01*
X349842Y67780D01*
X349795Y67820D01*
X349751Y67862D01*
X349709Y67906D01*
X349669Y67953D01*
X349633Y68003D01*
X349600Y68054D01*
X349569Y68108D01*
X349543Y68163D01*
X349519Y68220D01*
X349499Y68278D01*
X349483Y68337D01*
X349470Y68397D01*
X349460Y68458D01*
X349455Y68519D01*
X349453Y68580D01*
X349453Y71120D01*
X349455Y71181D01*
X349460Y71242D01*
X349470Y71303D01*
X349483Y71363D01*
X349499Y71422D01*
X349519Y71480D01*
X349543Y71537D01*
X349569Y71592D01*
X349600Y71646D01*
X349633Y71697D01*
X349669Y71747D01*
X349709Y71794D01*
X349751Y71838D01*
X349795Y71880D01*
X349842Y71920D01*
X349892Y71956D01*
X349943Y71989D01*
X349997Y72020D01*
X350052Y72046D01*
X350109Y72070D01*
X350167Y72090D01*
X350226Y72106D01*
X350286Y72119D01*
X350347Y72129D01*
X350408Y72134D01*
X350469Y72136D01*
X351993Y72136D01*
X354330Y72136D02*
X354330Y67564D01*
X356870Y67564D02*
X354330Y72136D01*
X356870Y72136D02*
X356870Y67564D01*
X359207Y67564D02*
X359207Y72136D01*
X360477Y72136D01*
X360546Y72134D01*
X360614Y72129D01*
X360682Y72119D01*
X360750Y72106D01*
X360817Y72090D01*
X360883Y72070D01*
X360947Y72046D01*
X361010Y72019D01*
X361072Y71988D01*
X361132Y71954D01*
X361190Y71917D01*
X361246Y71877D01*
X361299Y71834D01*
X361350Y71788D01*
X361399Y71739D01*
X361445Y71688D01*
X361488Y71635D01*
X361528Y71579D01*
X361565Y71521D01*
X361599Y71461D01*
X361630Y71399D01*
X361657Y71336D01*
X361681Y71272D01*
X361701Y71206D01*
X361717Y71139D01*
X361730Y71071D01*
X361740Y71003D01*
X361745Y70935D01*
X361747Y70866D01*
X361747Y68834D01*
X361745Y68765D01*
X361740Y68697D01*
X361730Y68629D01*
X361717Y68561D01*
X361701Y68494D01*
X361681Y68428D01*
X361657Y68364D01*
X361630Y68301D01*
X361599Y68239D01*
X361565Y68179D01*
X361528Y68121D01*
X361488Y68065D01*
X361445Y68012D01*
X361399Y67961D01*
X361350Y67912D01*
X361299Y67866D01*
X361246Y67823D01*
X361190Y67783D01*
X361132Y67746D01*
X361072Y67712D01*
X361010Y67681D01*
X360947Y67654D01*
X360883Y67630D01*
X360817Y67610D01*
X360750Y67594D01*
X360682Y67581D01*
X360614Y67571D01*
X360546Y67566D01*
X360477Y67564D01*
X359207Y67564D01*
X376357Y181229D02*
X378305Y187071D01*
X380252Y181229D01*
X379765Y182690D02*
X376844Y182690D01*
X382397Y184150D02*
X382399Y184286D01*
X382405Y184423D01*
X382414Y184559D01*
X382428Y184695D01*
X382445Y184830D01*
X382466Y184965D01*
X382491Y185099D01*
X382520Y185232D01*
X382553Y185365D01*
X382589Y185497D01*
X382629Y185627D01*
X382673Y185756D01*
X382720Y185884D01*
X382771Y186011D01*
X382826Y186136D01*
X382884Y186259D01*
X382908Y186323D01*
X382935Y186385D01*
X382966Y186445D01*
X383000Y186504D01*
X383037Y186560D01*
X383078Y186614D01*
X383121Y186666D01*
X383167Y186716D01*
X383216Y186763D01*
X383268Y186806D01*
X383322Y186847D01*
X383378Y186885D01*
X383436Y186920D01*
X383496Y186951D01*
X383558Y186979D01*
X383621Y187003D01*
X383686Y187024D01*
X383751Y187041D01*
X383818Y187054D01*
X383885Y187063D01*
X383952Y187069D01*
X384020Y187071D01*
X384088Y187069D01*
X384155Y187063D01*
X384222Y187054D01*
X384289Y187041D01*
X384354Y187024D01*
X384419Y187003D01*
X384482Y186979D01*
X384544Y186951D01*
X384604Y186920D01*
X384662Y186885D01*
X384718Y186847D01*
X384772Y186806D01*
X384824Y186763D01*
X384873Y186716D01*
X384919Y186666D01*
X384962Y186614D01*
X385003Y186560D01*
X385040Y186504D01*
X385074Y186445D01*
X385105Y186385D01*
X385132Y186323D01*
X385156Y186260D01*
X385155Y186259D02*
X385213Y186136D01*
X385268Y186011D01*
X385319Y185884D01*
X385366Y185756D01*
X385410Y185627D01*
X385450Y185497D01*
X385486Y185365D01*
X385519Y185232D01*
X385548Y185099D01*
X385573Y184965D01*
X385594Y184830D01*
X385611Y184695D01*
X385625Y184559D01*
X385634Y184423D01*
X385640Y184286D01*
X385642Y184150D01*
X382397Y184150D02*
X382399Y184014D01*
X382405Y183877D01*
X382414Y183741D01*
X382428Y183605D01*
X382445Y183470D01*
X382466Y183335D01*
X382491Y183201D01*
X382520Y183067D01*
X382553Y182935D01*
X382589Y182803D01*
X382629Y182673D01*
X382673Y182543D01*
X382720Y182415D01*
X382771Y182289D01*
X382826Y182164D01*
X382884Y182040D01*
X382908Y181977D01*
X382935Y181915D01*
X382966Y181855D01*
X383000Y181796D01*
X383037Y181740D01*
X383078Y181685D01*
X383121Y181634D01*
X383167Y181584D01*
X383216Y181537D01*
X383268Y181494D01*
X383322Y181453D01*
X383378Y181415D01*
X383436Y181380D01*
X383496Y181349D01*
X383558Y181321D01*
X383621Y181297D01*
X383686Y181276D01*
X383751Y181259D01*
X383818Y181246D01*
X383885Y181237D01*
X383952Y181231D01*
X384020Y181229D01*
X385156Y182040D02*
X385214Y182164D01*
X385269Y182289D01*
X385320Y182415D01*
X385367Y182543D01*
X385411Y182673D01*
X385451Y182803D01*
X385487Y182935D01*
X385520Y183067D01*
X385549Y183201D01*
X385574Y183335D01*
X385595Y183470D01*
X385612Y183605D01*
X385626Y183741D01*
X385635Y183877D01*
X385641Y184014D01*
X385643Y184150D01*
X385156Y182040D02*
X385132Y181977D01*
X385105Y181915D01*
X385074Y181855D01*
X385040Y181796D01*
X385003Y181740D01*
X384962Y181685D01*
X384919Y181634D01*
X384873Y181584D01*
X384824Y181537D01*
X384772Y181494D01*
X384718Y181453D01*
X384662Y181415D01*
X384604Y181380D01*
X384544Y181349D01*
X384482Y181321D01*
X384419Y181297D01*
X384354Y181276D01*
X384289Y181259D01*
X384222Y181246D01*
X384155Y181237D01*
X384088Y181231D01*
X384020Y181229D01*
X382722Y182527D02*
X385318Y185773D01*
X44196Y136017D02*
X39624Y137541D01*
X44196Y139065D01*
X43053Y138684D02*
X43053Y136398D01*
X41910Y140843D02*
X41788Y140845D01*
X41666Y140851D01*
X41544Y140861D01*
X41423Y140875D01*
X41302Y140892D01*
X41182Y140914D01*
X41063Y140939D01*
X40944Y140969D01*
X40827Y141002D01*
X40710Y141039D01*
X40595Y141080D01*
X40482Y141124D01*
X40369Y141172D01*
X40259Y141224D01*
X40205Y141244D01*
X40151Y141268D01*
X40100Y141296D01*
X40050Y141326D01*
X40002Y141359D01*
X39957Y141396D01*
X39913Y141435D01*
X39873Y141476D01*
X39834Y141520D01*
X39799Y141567D01*
X39767Y141615D01*
X39737Y141665D01*
X39711Y141718D01*
X39688Y141771D01*
X39669Y141826D01*
X39653Y141882D01*
X39640Y141939D01*
X39631Y141997D01*
X39626Y142055D01*
X39624Y142113D01*
X39626Y142171D01*
X39631Y142229D01*
X39640Y142287D01*
X39653Y142344D01*
X39669Y142400D01*
X39688Y142455D01*
X39711Y142508D01*
X39737Y142561D01*
X39767Y142611D01*
X39799Y142659D01*
X39834Y142706D01*
X39873Y142750D01*
X39913Y142791D01*
X39957Y142830D01*
X40002Y142867D01*
X40050Y142900D01*
X40100Y142930D01*
X40151Y142958D01*
X40205Y142982D01*
X40259Y143002D01*
X40369Y143054D01*
X40482Y143102D01*
X40595Y143146D01*
X40710Y143187D01*
X40827Y143224D01*
X40944Y143257D01*
X41063Y143287D01*
X41182Y143312D01*
X41302Y143334D01*
X41423Y143351D01*
X41544Y143365D01*
X41666Y143375D01*
X41788Y143381D01*
X41910Y143383D01*
X41910Y140843D02*
X42032Y140845D01*
X42154Y140851D01*
X42276Y140861D01*
X42397Y140875D01*
X42518Y140892D01*
X42638Y140914D01*
X42757Y140939D01*
X42876Y140969D01*
X42993Y141002D01*
X43110Y141039D01*
X43225Y141080D01*
X43338Y141124D01*
X43451Y141172D01*
X43561Y141224D01*
X43615Y141244D01*
X43669Y141268D01*
X43720Y141296D01*
X43770Y141326D01*
X43818Y141359D01*
X43863Y141396D01*
X43907Y141435D01*
X43947Y141476D01*
X43986Y141520D01*
X44021Y141567D01*
X44053Y141615D01*
X44083Y141665D01*
X44109Y141718D01*
X44132Y141771D01*
X44151Y141826D01*
X44167Y141882D01*
X44180Y141939D01*
X44189Y141997D01*
X44194Y142055D01*
X44196Y142113D01*
X43561Y143002D02*
X43451Y143054D01*
X43338Y143102D01*
X43225Y143146D01*
X43110Y143187D01*
X42993Y143224D01*
X42876Y143257D01*
X42757Y143287D01*
X42638Y143312D01*
X42518Y143334D01*
X42397Y143351D01*
X42276Y143365D01*
X42154Y143375D01*
X42032Y143381D01*
X41910Y143383D01*
X43561Y143002D02*
X43615Y142982D01*
X43669Y142958D01*
X43720Y142930D01*
X43770Y142900D01*
X43818Y142867D01*
X43863Y142830D01*
X43907Y142791D01*
X43947Y142750D01*
X43986Y142706D01*
X44021Y142659D01*
X44053Y142611D01*
X44083Y142561D01*
X44109Y142508D01*
X44132Y142455D01*
X44151Y142400D01*
X44167Y142344D01*
X44180Y142287D01*
X44189Y142229D01*
X44194Y142171D01*
X44196Y142113D01*
X43180Y141097D02*
X40640Y143129D01*
X350957Y181229D02*
X352905Y187071D01*
X354852Y181229D01*
X354365Y182690D02*
X351444Y182690D01*
X356997Y185773D02*
X358620Y187071D01*
X358620Y181229D01*
X356997Y181229D02*
X360243Y181229D01*
X327505Y187071D02*
X325557Y181229D01*
X329452Y181229D02*
X327505Y187071D01*
X328965Y182690D02*
X326044Y182690D01*
X333382Y187072D02*
X333456Y187070D01*
X333530Y187065D01*
X333603Y187055D01*
X333676Y187042D01*
X333748Y187025D01*
X333819Y187005D01*
X333889Y186981D01*
X333958Y186954D01*
X334025Y186923D01*
X334091Y186888D01*
X334155Y186851D01*
X334217Y186810D01*
X334276Y186766D01*
X334334Y186720D01*
X334389Y186670D01*
X334441Y186618D01*
X334491Y186563D01*
X334537Y186505D01*
X334581Y186446D01*
X334622Y186384D01*
X334659Y186320D01*
X334694Y186254D01*
X334725Y186187D01*
X334752Y186118D01*
X334776Y186048D01*
X334796Y185977D01*
X334813Y185905D01*
X334826Y185832D01*
X334836Y185759D01*
X334841Y185685D01*
X334843Y185611D01*
X333382Y187071D02*
X333298Y187069D01*
X333214Y187063D01*
X333130Y187054D01*
X333047Y187041D01*
X332964Y187024D01*
X332883Y187003D01*
X332802Y186979D01*
X332722Y186951D01*
X332644Y186920D01*
X332567Y186885D01*
X332492Y186847D01*
X332419Y186805D01*
X332348Y186760D01*
X332279Y186712D01*
X332212Y186661D01*
X332147Y186607D01*
X332085Y186550D01*
X332025Y186491D01*
X331968Y186428D01*
X331914Y186364D01*
X331863Y186297D01*
X331816Y186227D01*
X331771Y186156D01*
X331729Y186083D01*
X331691Y186007D01*
X331656Y185931D01*
X331625Y185853D01*
X331597Y185773D01*
X334356Y184475D02*
X334409Y184528D01*
X334459Y184583D01*
X334507Y184641D01*
X334552Y184700D01*
X334594Y184762D01*
X334633Y184826D01*
X334668Y184892D01*
X334701Y184959D01*
X334730Y185027D01*
X334757Y185098D01*
X334779Y185169D01*
X334799Y185241D01*
X334815Y185314D01*
X334827Y185388D01*
X334836Y185462D01*
X334841Y185536D01*
X334843Y185611D01*
X334356Y184475D02*
X331597Y181229D01*
X334843Y181229D01*
X42418Y111100D02*
X42418Y108052D01*
X43942Y109576D02*
X40894Y109576D01*
X44196Y113182D02*
X44196Y114452D01*
X44194Y114522D01*
X44188Y114592D01*
X44179Y114661D01*
X44165Y114730D01*
X44148Y114798D01*
X44127Y114864D01*
X44103Y114930D01*
X44075Y114994D01*
X44043Y115056D01*
X44008Y115117D01*
X43970Y115176D01*
X43928Y115232D01*
X43884Y115286D01*
X43836Y115338D01*
X43786Y115386D01*
X43733Y115432D01*
X43678Y115475D01*
X43621Y115515D01*
X43561Y115552D01*
X43499Y115585D01*
X43436Y115615D01*
X43371Y115641D01*
X43305Y115664D01*
X43238Y115683D01*
X43169Y115698D01*
X43100Y115710D01*
X43031Y115718D01*
X42961Y115722D01*
X42891Y115722D01*
X42821Y115718D01*
X42752Y115710D01*
X42683Y115698D01*
X42614Y115683D01*
X42547Y115664D01*
X42481Y115641D01*
X42416Y115615D01*
X42353Y115585D01*
X42291Y115552D01*
X42231Y115515D01*
X42174Y115475D01*
X42119Y115432D01*
X42066Y115386D01*
X42016Y115338D01*
X41968Y115286D01*
X41924Y115232D01*
X41882Y115176D01*
X41844Y115117D01*
X41809Y115056D01*
X41777Y114994D01*
X41749Y114930D01*
X41725Y114864D01*
X41704Y114798D01*
X41687Y114730D01*
X41673Y114661D01*
X41664Y114592D01*
X41658Y114522D01*
X41656Y114452D01*
X39624Y114706D02*
X39624Y113182D01*
X39624Y114706D02*
X39626Y114769D01*
X39632Y114831D01*
X39641Y114893D01*
X39655Y114954D01*
X39672Y115014D01*
X39693Y115073D01*
X39717Y115131D01*
X39745Y115187D01*
X39776Y115241D01*
X39811Y115293D01*
X39848Y115343D01*
X39889Y115390D01*
X39933Y115435D01*
X39979Y115478D01*
X40028Y115517D01*
X40079Y115553D01*
X40132Y115586D01*
X40187Y115615D01*
X40244Y115642D01*
X40302Y115664D01*
X40362Y115683D01*
X40423Y115698D01*
X40484Y115710D01*
X40546Y115718D01*
X40609Y115722D01*
X40671Y115722D01*
X40734Y115718D01*
X40796Y115710D01*
X40857Y115698D01*
X40918Y115683D01*
X40978Y115664D01*
X41036Y115642D01*
X41093Y115615D01*
X41148Y115586D01*
X41201Y115553D01*
X41252Y115517D01*
X41301Y115478D01*
X41347Y115435D01*
X41391Y115390D01*
X41432Y115343D01*
X41469Y115293D01*
X41504Y115241D01*
X41535Y115187D01*
X41563Y115131D01*
X41587Y115073D01*
X41608Y115014D01*
X41625Y114954D01*
X41639Y114893D01*
X41648Y114831D01*
X41654Y114769D01*
X41656Y114706D01*
X41656Y113690D01*
X39624Y117500D02*
X44196Y119024D01*
X39624Y120548D01*
X322347Y69201D02*
X326242Y69201D01*
X324295Y67254D02*
X324295Y71148D01*
X328768Y66929D02*
X330390Y66929D01*
X330470Y66931D01*
X330549Y66937D01*
X330628Y66947D01*
X330707Y66960D01*
X330784Y66978D01*
X330861Y66999D01*
X330937Y67024D01*
X331011Y67053D01*
X331084Y67085D01*
X331155Y67121D01*
X331224Y67160D01*
X331292Y67203D01*
X331357Y67248D01*
X331420Y67297D01*
X331480Y67349D01*
X331538Y67404D01*
X331593Y67462D01*
X331645Y67522D01*
X331694Y67585D01*
X331739Y67650D01*
X331782Y67718D01*
X331821Y67787D01*
X331857Y67858D01*
X331889Y67931D01*
X331918Y68005D01*
X331943Y68081D01*
X331964Y68158D01*
X331982Y68235D01*
X331995Y68314D01*
X332005Y68393D01*
X332011Y68472D01*
X332013Y68552D01*
X332011Y68632D01*
X332005Y68711D01*
X331995Y68790D01*
X331982Y68869D01*
X331964Y68946D01*
X331943Y69023D01*
X331918Y69099D01*
X331889Y69173D01*
X331857Y69246D01*
X331821Y69317D01*
X331782Y69386D01*
X331739Y69454D01*
X331694Y69519D01*
X331645Y69582D01*
X331593Y69642D01*
X331538Y69700D01*
X331480Y69755D01*
X331420Y69807D01*
X331357Y69856D01*
X331292Y69901D01*
X331224Y69944D01*
X331155Y69983D01*
X331084Y70019D01*
X331011Y70051D01*
X330937Y70080D01*
X330861Y70105D01*
X330784Y70126D01*
X330707Y70144D01*
X330628Y70157D01*
X330549Y70167D01*
X330470Y70173D01*
X330390Y70175D01*
X330715Y72771D02*
X328768Y72771D01*
X330715Y72771D02*
X330785Y72769D01*
X330855Y72763D01*
X330925Y72754D01*
X330994Y72741D01*
X331062Y72724D01*
X331129Y72703D01*
X331195Y72679D01*
X331260Y72651D01*
X331323Y72620D01*
X331384Y72585D01*
X331443Y72547D01*
X331501Y72506D01*
X331555Y72462D01*
X331608Y72415D01*
X331657Y72366D01*
X331704Y72313D01*
X331748Y72259D01*
X331789Y72201D01*
X331827Y72142D01*
X331862Y72081D01*
X331893Y72018D01*
X331921Y71953D01*
X331945Y71887D01*
X331966Y71820D01*
X331983Y71752D01*
X331996Y71683D01*
X332005Y71613D01*
X332011Y71543D01*
X332013Y71473D01*
X332011Y71403D01*
X332005Y71333D01*
X331996Y71263D01*
X331983Y71194D01*
X331966Y71126D01*
X331945Y71059D01*
X331921Y70993D01*
X331893Y70928D01*
X331862Y70865D01*
X331827Y70804D01*
X331789Y70745D01*
X331748Y70687D01*
X331704Y70633D01*
X331657Y70580D01*
X331608Y70531D01*
X331555Y70484D01*
X331501Y70440D01*
X331443Y70399D01*
X331384Y70361D01*
X331323Y70326D01*
X331260Y70295D01*
X331195Y70267D01*
X331129Y70243D01*
X331062Y70222D01*
X330994Y70205D01*
X330925Y70192D01*
X330855Y70183D01*
X330785Y70177D01*
X330715Y70175D01*
X329417Y70175D01*
X334158Y72771D02*
X336105Y66929D01*
X338053Y72771D01*
X373147Y69201D02*
X377042Y69201D01*
X375095Y67254D02*
X375095Y71148D01*
X379568Y66929D02*
X381515Y66929D01*
X381585Y66931D01*
X381655Y66937D01*
X381725Y66946D01*
X381794Y66959D01*
X381862Y66976D01*
X381929Y66997D01*
X381995Y67021D01*
X382060Y67049D01*
X382123Y67080D01*
X382184Y67115D01*
X382243Y67153D01*
X382301Y67194D01*
X382355Y67238D01*
X382408Y67285D01*
X382457Y67334D01*
X382504Y67387D01*
X382548Y67441D01*
X382589Y67499D01*
X382627Y67558D01*
X382662Y67619D01*
X382693Y67682D01*
X382721Y67747D01*
X382745Y67813D01*
X382766Y67880D01*
X382783Y67948D01*
X382796Y68017D01*
X382805Y68087D01*
X382811Y68157D01*
X382813Y68227D01*
X382813Y68876D01*
X382811Y68946D01*
X382805Y69016D01*
X382796Y69086D01*
X382783Y69155D01*
X382766Y69223D01*
X382745Y69290D01*
X382721Y69356D01*
X382693Y69421D01*
X382662Y69484D01*
X382627Y69545D01*
X382589Y69604D01*
X382548Y69662D01*
X382504Y69716D01*
X382457Y69769D01*
X382408Y69818D01*
X382355Y69865D01*
X382301Y69909D01*
X382243Y69950D01*
X382184Y69988D01*
X382123Y70023D01*
X382060Y70054D01*
X381995Y70082D01*
X381929Y70106D01*
X381862Y70127D01*
X381794Y70144D01*
X381725Y70157D01*
X381655Y70166D01*
X381585Y70172D01*
X381515Y70174D01*
X381515Y70175D02*
X379568Y70175D01*
X379568Y72771D01*
X382813Y72771D01*
X384958Y72771D02*
X386905Y66929D01*
X388853Y72771D01*
X41656Y47193D02*
X41656Y46431D01*
X41656Y47193D02*
X44196Y47193D01*
X44196Y45669D01*
X44194Y45608D01*
X44189Y45547D01*
X44179Y45486D01*
X44166Y45426D01*
X44150Y45367D01*
X44130Y45309D01*
X44106Y45252D01*
X44080Y45197D01*
X44049Y45143D01*
X44016Y45092D01*
X43980Y45042D01*
X43940Y44995D01*
X43898Y44951D01*
X43854Y44909D01*
X43807Y44869D01*
X43757Y44833D01*
X43706Y44800D01*
X43652Y44769D01*
X43597Y44743D01*
X43540Y44719D01*
X43482Y44699D01*
X43423Y44683D01*
X43363Y44670D01*
X43302Y44660D01*
X43241Y44655D01*
X43180Y44653D01*
X40640Y44653D01*
X40579Y44655D01*
X40518Y44660D01*
X40457Y44670D01*
X40397Y44683D01*
X40338Y44699D01*
X40280Y44719D01*
X40223Y44743D01*
X40168Y44769D01*
X40114Y44800D01*
X40063Y44833D01*
X40013Y44869D01*
X39966Y44909D01*
X39922Y44951D01*
X39880Y44995D01*
X39840Y45042D01*
X39804Y45092D01*
X39771Y45143D01*
X39740Y45197D01*
X39714Y45252D01*
X39690Y45309D01*
X39670Y45367D01*
X39654Y45426D01*
X39641Y45486D01*
X39631Y45547D01*
X39626Y45608D01*
X39624Y45669D01*
X39624Y47193D01*
X39624Y49530D02*
X44196Y49530D01*
X44196Y52070D02*
X39624Y49530D01*
X39624Y52070D02*
X44196Y52070D01*
X44196Y54407D02*
X39624Y54407D01*
X39624Y55677D01*
X39626Y55746D01*
X39631Y55814D01*
X39641Y55882D01*
X39654Y55950D01*
X39670Y56017D01*
X39690Y56083D01*
X39714Y56147D01*
X39741Y56210D01*
X39772Y56272D01*
X39806Y56332D01*
X39843Y56390D01*
X39883Y56446D01*
X39926Y56499D01*
X39972Y56550D01*
X40021Y56599D01*
X40072Y56645D01*
X40125Y56688D01*
X40181Y56728D01*
X40239Y56765D01*
X40299Y56799D01*
X40361Y56830D01*
X40424Y56857D01*
X40488Y56881D01*
X40554Y56901D01*
X40621Y56917D01*
X40689Y56930D01*
X40757Y56940D01*
X40825Y56945D01*
X40894Y56947D01*
X42926Y56947D01*
X42995Y56945D01*
X43063Y56940D01*
X43131Y56930D01*
X43199Y56917D01*
X43266Y56901D01*
X43332Y56881D01*
X43396Y56857D01*
X43459Y56830D01*
X43521Y56799D01*
X43581Y56765D01*
X43639Y56728D01*
X43695Y56688D01*
X43748Y56645D01*
X43799Y56599D01*
X43848Y56550D01*
X43894Y56499D01*
X43937Y56446D01*
X43977Y56390D01*
X44014Y56332D01*
X44048Y56272D01*
X44079Y56210D01*
X44106Y56147D01*
X44130Y56083D01*
X44150Y56017D01*
X44166Y55950D01*
X44179Y55882D01*
X44189Y55814D01*
X44194Y55746D01*
X44196Y55677D01*
X44196Y54407D01*
D11*
X241681Y101981D02*
X241681Y111379D01*
X244292Y111379D01*
X244392Y111377D01*
X244492Y111371D01*
X244591Y111362D01*
X244691Y111348D01*
X244789Y111331D01*
X244887Y111310D01*
X244984Y111286D01*
X245080Y111257D01*
X245175Y111225D01*
X245268Y111190D01*
X245360Y111151D01*
X245451Y111108D01*
X245539Y111062D01*
X245626Y111012D01*
X245711Y110960D01*
X245794Y110904D01*
X245875Y110845D01*
X245953Y110782D01*
X246029Y110717D01*
X246103Y110649D01*
X246173Y110579D01*
X246241Y110505D01*
X246306Y110429D01*
X246369Y110351D01*
X246428Y110270D01*
X246484Y110187D01*
X246536Y110102D01*
X246586Y110015D01*
X246632Y109927D01*
X246675Y109836D01*
X246714Y109744D01*
X246749Y109651D01*
X246781Y109556D01*
X246810Y109460D01*
X246834Y109363D01*
X246855Y109265D01*
X246872Y109167D01*
X246886Y109067D01*
X246895Y108968D01*
X246901Y108868D01*
X246903Y108768D01*
X246902Y108768D02*
X246902Y104592D01*
X246903Y104592D02*
X246901Y104492D01*
X246895Y104392D01*
X246886Y104293D01*
X246872Y104193D01*
X246855Y104095D01*
X246834Y103997D01*
X246810Y103900D01*
X246781Y103804D01*
X246749Y103709D01*
X246714Y103616D01*
X246675Y103524D01*
X246632Y103433D01*
X246586Y103345D01*
X246536Y103258D01*
X246484Y103173D01*
X246428Y103090D01*
X246369Y103009D01*
X246306Y102931D01*
X246241Y102855D01*
X246173Y102781D01*
X246103Y102711D01*
X246029Y102643D01*
X245953Y102578D01*
X245875Y102515D01*
X245794Y102456D01*
X245711Y102400D01*
X245626Y102348D01*
X245539Y102298D01*
X245451Y102252D01*
X245360Y102209D01*
X245268Y102170D01*
X245175Y102135D01*
X245080Y102103D01*
X244984Y102074D01*
X244887Y102050D01*
X244789Y102029D01*
X244691Y102012D01*
X244591Y101998D01*
X244492Y101989D01*
X244392Y101983D01*
X244292Y101981D01*
X241681Y101981D01*
X252609Y101981D02*
X255219Y101981D01*
X252609Y101981D02*
X252532Y101983D01*
X252456Y101989D01*
X252379Y101998D01*
X252303Y102011D01*
X252228Y102028D01*
X252154Y102048D01*
X252081Y102073D01*
X252010Y102100D01*
X251939Y102131D01*
X251871Y102166D01*
X251804Y102204D01*
X251739Y102245D01*
X251676Y102289D01*
X251616Y102336D01*
X251557Y102387D01*
X251502Y102440D01*
X251449Y102495D01*
X251398Y102554D01*
X251351Y102614D01*
X251307Y102677D01*
X251266Y102742D01*
X251228Y102809D01*
X251193Y102877D01*
X251162Y102948D01*
X251135Y103019D01*
X251110Y103092D01*
X251090Y103166D01*
X251073Y103241D01*
X251060Y103317D01*
X251051Y103394D01*
X251045Y103470D01*
X251043Y103547D01*
X251042Y103547D02*
X251042Y106158D01*
X251043Y106158D02*
X251045Y106248D01*
X251051Y106337D01*
X251060Y106427D01*
X251074Y106516D01*
X251091Y106604D01*
X251112Y106691D01*
X251137Y106778D01*
X251166Y106863D01*
X251198Y106947D01*
X251233Y107029D01*
X251273Y107110D01*
X251315Y107189D01*
X251361Y107266D01*
X251411Y107341D01*
X251463Y107414D01*
X251519Y107485D01*
X251577Y107553D01*
X251639Y107618D01*
X251703Y107681D01*
X251770Y107741D01*
X251839Y107798D01*
X251911Y107852D01*
X251985Y107903D01*
X252061Y107951D01*
X252139Y107995D01*
X252219Y108036D01*
X252301Y108074D01*
X252384Y108108D01*
X252469Y108138D01*
X252555Y108165D01*
X252641Y108188D01*
X252729Y108207D01*
X252818Y108222D01*
X252907Y108234D01*
X252996Y108242D01*
X253086Y108246D01*
X253176Y108246D01*
X253266Y108242D01*
X253355Y108234D01*
X253444Y108222D01*
X253533Y108207D01*
X253621Y108188D01*
X253707Y108165D01*
X253793Y108138D01*
X253878Y108108D01*
X253961Y108074D01*
X254043Y108036D01*
X254123Y107995D01*
X254201Y107951D01*
X254277Y107903D01*
X254351Y107852D01*
X254423Y107798D01*
X254492Y107741D01*
X254559Y107681D01*
X254623Y107618D01*
X254685Y107553D01*
X254743Y107485D01*
X254799Y107414D01*
X254851Y107341D01*
X254901Y107266D01*
X254947Y107189D01*
X254989Y107110D01*
X255029Y107029D01*
X255064Y106947D01*
X255096Y106863D01*
X255125Y106778D01*
X255150Y106691D01*
X255171Y106604D01*
X255188Y106516D01*
X255202Y106427D01*
X255211Y106337D01*
X255217Y106248D01*
X255219Y106158D01*
X255219Y105114D01*
X251042Y105114D01*
X259750Y105636D02*
X262361Y104592D01*
X259750Y105636D02*
X259684Y105664D01*
X259619Y105697D01*
X259556Y105732D01*
X259495Y105771D01*
X259436Y105813D01*
X259380Y105858D01*
X259326Y105906D01*
X259275Y105957D01*
X259226Y106010D01*
X259181Y106067D01*
X259138Y106125D01*
X259099Y106185D01*
X259062Y106248D01*
X259030Y106313D01*
X259001Y106379D01*
X258975Y106446D01*
X258953Y106515D01*
X258935Y106585D01*
X258920Y106656D01*
X258909Y106727D01*
X258902Y106799D01*
X258899Y106871D01*
X258900Y106943D01*
X258905Y107016D01*
X258913Y107087D01*
X258925Y107159D01*
X258941Y107229D01*
X258961Y107298D01*
X258985Y107367D01*
X259012Y107434D01*
X259042Y107499D01*
X259076Y107563D01*
X259114Y107625D01*
X259154Y107685D01*
X259198Y107742D01*
X259245Y107797D01*
X259295Y107850D01*
X259347Y107899D01*
X259402Y107946D01*
X259459Y107990D01*
X259519Y108031D01*
X259581Y108068D01*
X259645Y108103D01*
X259710Y108133D01*
X259777Y108161D01*
X259845Y108184D01*
X259915Y108204D01*
X259985Y108220D01*
X260056Y108233D01*
X260128Y108241D01*
X260200Y108246D01*
X260272Y108247D01*
X260273Y108246D02*
X260424Y108242D01*
X260575Y108234D01*
X260726Y108223D01*
X260877Y108207D01*
X261027Y108187D01*
X261177Y108164D01*
X261326Y108137D01*
X261474Y108106D01*
X261622Y108071D01*
X261768Y108033D01*
X261914Y107990D01*
X262058Y107944D01*
X262201Y107895D01*
X262343Y107842D01*
X262483Y107785D01*
X262622Y107724D01*
X262361Y104592D02*
X262427Y104564D01*
X262492Y104531D01*
X262555Y104496D01*
X262616Y104457D01*
X262675Y104415D01*
X262731Y104370D01*
X262785Y104322D01*
X262836Y104271D01*
X262885Y104218D01*
X262930Y104161D01*
X262973Y104103D01*
X263012Y104043D01*
X263049Y103980D01*
X263081Y103915D01*
X263110Y103849D01*
X263136Y103782D01*
X263158Y103713D01*
X263176Y103643D01*
X263191Y103572D01*
X263202Y103501D01*
X263209Y103429D01*
X263212Y103357D01*
X263211Y103285D01*
X263206Y103212D01*
X263198Y103141D01*
X263186Y103069D01*
X263170Y102999D01*
X263150Y102930D01*
X263126Y102861D01*
X263099Y102794D01*
X263069Y102729D01*
X263035Y102665D01*
X262997Y102603D01*
X262957Y102543D01*
X262913Y102486D01*
X262866Y102431D01*
X262816Y102378D01*
X262764Y102329D01*
X262709Y102282D01*
X262652Y102238D01*
X262592Y102197D01*
X262530Y102160D01*
X262466Y102125D01*
X262401Y102095D01*
X262334Y102067D01*
X262266Y102044D01*
X262196Y102024D01*
X262126Y102008D01*
X262055Y101995D01*
X261983Y101987D01*
X261911Y101982D01*
X261839Y101981D01*
X261629Y101986D01*
X261420Y101997D01*
X261211Y102012D01*
X261003Y102032D01*
X260795Y102058D01*
X260588Y102088D01*
X260381Y102123D01*
X260176Y102163D01*
X259971Y102207D01*
X259768Y102257D01*
X259565Y102311D01*
X259364Y102371D01*
X259165Y102434D01*
X258967Y102503D01*
X266847Y101981D02*
X266847Y108246D01*
X266586Y110857D02*
X266586Y111379D01*
X267108Y111379D01*
X267108Y110857D01*
X266586Y110857D01*
X272070Y101981D02*
X274681Y101981D01*
X272070Y101981D02*
X271993Y101983D01*
X271917Y101989D01*
X271840Y101998D01*
X271764Y102011D01*
X271689Y102028D01*
X271615Y102048D01*
X271542Y102073D01*
X271471Y102100D01*
X271400Y102131D01*
X271332Y102166D01*
X271265Y102204D01*
X271200Y102245D01*
X271137Y102289D01*
X271077Y102336D01*
X271018Y102387D01*
X270963Y102440D01*
X270910Y102495D01*
X270859Y102554D01*
X270812Y102614D01*
X270768Y102677D01*
X270727Y102742D01*
X270689Y102809D01*
X270654Y102877D01*
X270623Y102948D01*
X270596Y103019D01*
X270571Y103092D01*
X270551Y103166D01*
X270534Y103241D01*
X270521Y103317D01*
X270512Y103394D01*
X270506Y103470D01*
X270504Y103547D01*
X270504Y106680D01*
X270506Y106757D01*
X270512Y106833D01*
X270521Y106910D01*
X270534Y106986D01*
X270551Y107061D01*
X270571Y107135D01*
X270596Y107208D01*
X270623Y107279D01*
X270654Y107350D01*
X270689Y107418D01*
X270727Y107485D01*
X270768Y107550D01*
X270812Y107613D01*
X270859Y107673D01*
X270910Y107732D01*
X270963Y107787D01*
X271018Y107840D01*
X271077Y107891D01*
X271137Y107938D01*
X271200Y107982D01*
X271265Y108023D01*
X271332Y108061D01*
X271400Y108096D01*
X271471Y108127D01*
X271542Y108154D01*
X271615Y108179D01*
X271689Y108199D01*
X271764Y108216D01*
X271840Y108229D01*
X271917Y108238D01*
X271993Y108244D01*
X272070Y108246D01*
X274681Y108246D01*
X274681Y100415D01*
X274680Y100415D02*
X274678Y100338D01*
X274672Y100262D01*
X274663Y100185D01*
X274650Y100109D01*
X274633Y100034D01*
X274613Y99960D01*
X274588Y99887D01*
X274561Y99816D01*
X274530Y99745D01*
X274495Y99677D01*
X274457Y99610D01*
X274416Y99545D01*
X274372Y99482D01*
X274325Y99422D01*
X274274Y99363D01*
X274221Y99308D01*
X274166Y99255D01*
X274107Y99204D01*
X274047Y99157D01*
X273984Y99113D01*
X273919Y99072D01*
X273852Y99034D01*
X273784Y98999D01*
X273713Y98968D01*
X273642Y98941D01*
X273569Y98916D01*
X273495Y98896D01*
X273420Y98879D01*
X273344Y98866D01*
X273268Y98857D01*
X273191Y98851D01*
X273114Y98849D01*
X273114Y98848D02*
X271026Y98848D01*
X279084Y101981D02*
X279084Y108246D01*
X281694Y108246D01*
X281771Y108244D01*
X281847Y108238D01*
X281924Y108229D01*
X282000Y108216D01*
X282075Y108199D01*
X282149Y108179D01*
X282222Y108154D01*
X282293Y108127D01*
X282364Y108096D01*
X282432Y108061D01*
X282499Y108023D01*
X282564Y107982D01*
X282627Y107938D01*
X282687Y107891D01*
X282746Y107840D01*
X282801Y107787D01*
X282854Y107732D01*
X282905Y107673D01*
X282952Y107613D01*
X282996Y107550D01*
X283037Y107485D01*
X283075Y107418D01*
X283110Y107350D01*
X283141Y107279D01*
X283168Y107208D01*
X283193Y107135D01*
X283213Y107061D01*
X283230Y106986D01*
X283243Y106910D01*
X283252Y106834D01*
X283258Y106757D01*
X283260Y106680D01*
X283261Y106680D02*
X283261Y101981D01*
X288880Y101981D02*
X291490Y101981D01*
X288880Y101981D02*
X288803Y101983D01*
X288727Y101989D01*
X288650Y101998D01*
X288574Y102011D01*
X288499Y102028D01*
X288425Y102048D01*
X288352Y102073D01*
X288281Y102100D01*
X288210Y102131D01*
X288142Y102166D01*
X288075Y102204D01*
X288010Y102245D01*
X287947Y102289D01*
X287887Y102336D01*
X287828Y102387D01*
X287773Y102440D01*
X287720Y102495D01*
X287669Y102554D01*
X287622Y102614D01*
X287578Y102677D01*
X287537Y102742D01*
X287499Y102809D01*
X287464Y102877D01*
X287433Y102948D01*
X287406Y103019D01*
X287381Y103092D01*
X287361Y103166D01*
X287344Y103241D01*
X287331Y103317D01*
X287322Y103394D01*
X287316Y103470D01*
X287314Y103547D01*
X287313Y103547D02*
X287313Y106158D01*
X287314Y106158D02*
X287316Y106248D01*
X287322Y106337D01*
X287331Y106427D01*
X287345Y106516D01*
X287362Y106604D01*
X287383Y106691D01*
X287408Y106778D01*
X287437Y106863D01*
X287469Y106947D01*
X287504Y107029D01*
X287544Y107110D01*
X287586Y107189D01*
X287632Y107266D01*
X287682Y107341D01*
X287734Y107414D01*
X287790Y107485D01*
X287848Y107553D01*
X287910Y107618D01*
X287974Y107681D01*
X288041Y107741D01*
X288110Y107798D01*
X288182Y107852D01*
X288256Y107903D01*
X288332Y107951D01*
X288410Y107995D01*
X288490Y108036D01*
X288572Y108074D01*
X288655Y108108D01*
X288740Y108138D01*
X288826Y108165D01*
X288912Y108188D01*
X289000Y108207D01*
X289089Y108222D01*
X289178Y108234D01*
X289267Y108242D01*
X289357Y108246D01*
X289447Y108246D01*
X289537Y108242D01*
X289626Y108234D01*
X289715Y108222D01*
X289804Y108207D01*
X289892Y108188D01*
X289978Y108165D01*
X290064Y108138D01*
X290149Y108108D01*
X290232Y108074D01*
X290314Y108036D01*
X290394Y107995D01*
X290472Y107951D01*
X290548Y107903D01*
X290622Y107852D01*
X290694Y107798D01*
X290763Y107741D01*
X290830Y107681D01*
X290894Y107618D01*
X290956Y107553D01*
X291014Y107485D01*
X291070Y107414D01*
X291122Y107341D01*
X291172Y107266D01*
X291218Y107189D01*
X291260Y107110D01*
X291300Y107029D01*
X291335Y106947D01*
X291367Y106863D01*
X291396Y106778D01*
X291421Y106691D01*
X291442Y106604D01*
X291459Y106516D01*
X291473Y106427D01*
X291482Y106337D01*
X291488Y106248D01*
X291490Y106158D01*
X291490Y105114D01*
X287313Y105114D01*
X295594Y101981D02*
X295594Y108246D01*
X298727Y108246D01*
X298727Y107202D01*
X301637Y103286D02*
X301637Y102764D01*
X301637Y103286D02*
X302160Y103286D01*
X302160Y102764D01*
X301637Y102764D01*
X301637Y106941D02*
X301637Y107463D01*
X302160Y107463D01*
X302160Y106941D01*
X301637Y106941D01*
X311652Y111379D02*
X311652Y101981D01*
X310608Y101981D02*
X312696Y101981D01*
X312696Y111379D02*
X310608Y111379D01*
X317052Y105636D02*
X319663Y104592D01*
X317052Y105636D02*
X316986Y105664D01*
X316921Y105697D01*
X316858Y105732D01*
X316797Y105771D01*
X316738Y105813D01*
X316682Y105858D01*
X316628Y105906D01*
X316577Y105957D01*
X316528Y106010D01*
X316483Y106067D01*
X316440Y106125D01*
X316401Y106185D01*
X316364Y106248D01*
X316332Y106313D01*
X316303Y106379D01*
X316277Y106446D01*
X316255Y106515D01*
X316237Y106585D01*
X316222Y106656D01*
X316211Y106727D01*
X316204Y106799D01*
X316201Y106871D01*
X316202Y106943D01*
X316207Y107016D01*
X316215Y107087D01*
X316227Y107159D01*
X316243Y107229D01*
X316263Y107298D01*
X316287Y107367D01*
X316314Y107434D01*
X316344Y107499D01*
X316378Y107563D01*
X316416Y107625D01*
X316456Y107685D01*
X316500Y107742D01*
X316547Y107797D01*
X316597Y107850D01*
X316649Y107899D01*
X316704Y107946D01*
X316761Y107990D01*
X316821Y108031D01*
X316883Y108068D01*
X316947Y108103D01*
X317012Y108133D01*
X317079Y108161D01*
X317147Y108184D01*
X317217Y108204D01*
X317287Y108220D01*
X317358Y108233D01*
X317430Y108241D01*
X317502Y108246D01*
X317574Y108247D01*
X317575Y108246D02*
X317726Y108242D01*
X317877Y108234D01*
X318028Y108223D01*
X318179Y108207D01*
X318329Y108187D01*
X318479Y108164D01*
X318628Y108137D01*
X318776Y108106D01*
X318924Y108071D01*
X319070Y108033D01*
X319216Y107990D01*
X319360Y107944D01*
X319503Y107895D01*
X319645Y107842D01*
X319785Y107785D01*
X319924Y107724D01*
X319663Y104592D02*
X319729Y104564D01*
X319794Y104531D01*
X319857Y104496D01*
X319918Y104457D01*
X319977Y104415D01*
X320033Y104370D01*
X320087Y104322D01*
X320138Y104271D01*
X320187Y104218D01*
X320232Y104161D01*
X320275Y104103D01*
X320314Y104043D01*
X320351Y103980D01*
X320383Y103915D01*
X320412Y103849D01*
X320438Y103782D01*
X320460Y103713D01*
X320478Y103643D01*
X320493Y103572D01*
X320504Y103501D01*
X320511Y103429D01*
X320514Y103357D01*
X320513Y103285D01*
X320508Y103212D01*
X320500Y103141D01*
X320488Y103069D01*
X320472Y102999D01*
X320452Y102930D01*
X320428Y102861D01*
X320401Y102794D01*
X320371Y102729D01*
X320337Y102665D01*
X320299Y102603D01*
X320259Y102543D01*
X320215Y102486D01*
X320168Y102431D01*
X320118Y102378D01*
X320066Y102329D01*
X320011Y102282D01*
X319954Y102238D01*
X319894Y102197D01*
X319832Y102160D01*
X319768Y102125D01*
X319703Y102095D01*
X319636Y102067D01*
X319568Y102044D01*
X319498Y102024D01*
X319428Y102008D01*
X319357Y101995D01*
X319285Y101987D01*
X319213Y101982D01*
X319141Y101981D01*
X318931Y101986D01*
X318722Y101997D01*
X318513Y102012D01*
X318305Y102032D01*
X318097Y102058D01*
X317890Y102088D01*
X317683Y102123D01*
X317478Y102163D01*
X317273Y102207D01*
X317070Y102257D01*
X316867Y102311D01*
X316666Y102371D01*
X316467Y102434D01*
X316269Y102503D01*
X325976Y105636D02*
X328325Y105636D01*
X325976Y105635D02*
X325892Y105633D01*
X325807Y105627D01*
X325724Y105617D01*
X325640Y105604D01*
X325558Y105586D01*
X325476Y105565D01*
X325395Y105540D01*
X325316Y105512D01*
X325238Y105479D01*
X325162Y105443D01*
X325087Y105404D01*
X325014Y105361D01*
X324943Y105315D01*
X324875Y105266D01*
X324809Y105214D01*
X324745Y105158D01*
X324684Y105100D01*
X324626Y105039D01*
X324570Y104975D01*
X324518Y104909D01*
X324469Y104841D01*
X324423Y104770D01*
X324380Y104697D01*
X324341Y104622D01*
X324305Y104546D01*
X324272Y104468D01*
X324244Y104389D01*
X324219Y104308D01*
X324198Y104226D01*
X324180Y104144D01*
X324167Y104060D01*
X324157Y103977D01*
X324151Y103892D01*
X324149Y103808D01*
X324151Y103724D01*
X324157Y103639D01*
X324167Y103556D01*
X324180Y103472D01*
X324198Y103390D01*
X324219Y103308D01*
X324244Y103227D01*
X324272Y103148D01*
X324305Y103070D01*
X324341Y102994D01*
X324380Y102919D01*
X324423Y102846D01*
X324469Y102775D01*
X324518Y102707D01*
X324570Y102641D01*
X324626Y102577D01*
X324684Y102516D01*
X324745Y102458D01*
X324809Y102402D01*
X324875Y102350D01*
X324943Y102301D01*
X325014Y102255D01*
X325087Y102212D01*
X325162Y102173D01*
X325238Y102137D01*
X325316Y102104D01*
X325395Y102076D01*
X325476Y102051D01*
X325558Y102030D01*
X325640Y102012D01*
X325724Y101999D01*
X325807Y101989D01*
X325892Y101983D01*
X325976Y101981D01*
X328325Y101981D01*
X328325Y106680D01*
X328323Y106757D01*
X328317Y106833D01*
X328308Y106910D01*
X328295Y106986D01*
X328278Y107061D01*
X328258Y107135D01*
X328233Y107208D01*
X328206Y107279D01*
X328175Y107350D01*
X328140Y107418D01*
X328102Y107485D01*
X328061Y107550D01*
X328017Y107613D01*
X327970Y107673D01*
X327919Y107732D01*
X327866Y107787D01*
X327811Y107840D01*
X327752Y107891D01*
X327692Y107938D01*
X327629Y107982D01*
X327564Y108023D01*
X327497Y108061D01*
X327429Y108096D01*
X327358Y108127D01*
X327287Y108154D01*
X327214Y108179D01*
X327140Y108199D01*
X327065Y108216D01*
X326989Y108229D01*
X326912Y108238D01*
X326836Y108244D01*
X326759Y108246D01*
X324670Y108246D01*
X334205Y105636D02*
X336555Y105636D01*
X334205Y105635D02*
X334121Y105633D01*
X334036Y105627D01*
X333953Y105617D01*
X333869Y105604D01*
X333787Y105586D01*
X333705Y105565D01*
X333624Y105540D01*
X333545Y105512D01*
X333467Y105479D01*
X333391Y105443D01*
X333316Y105404D01*
X333243Y105361D01*
X333172Y105315D01*
X333104Y105266D01*
X333038Y105214D01*
X332974Y105158D01*
X332913Y105100D01*
X332855Y105039D01*
X332799Y104975D01*
X332747Y104909D01*
X332698Y104841D01*
X332652Y104770D01*
X332609Y104697D01*
X332570Y104622D01*
X332534Y104546D01*
X332501Y104468D01*
X332473Y104389D01*
X332448Y104308D01*
X332427Y104226D01*
X332409Y104144D01*
X332396Y104060D01*
X332386Y103977D01*
X332380Y103892D01*
X332378Y103808D01*
X332380Y103724D01*
X332386Y103639D01*
X332396Y103556D01*
X332409Y103472D01*
X332427Y103390D01*
X332448Y103308D01*
X332473Y103227D01*
X332501Y103148D01*
X332534Y103070D01*
X332570Y102994D01*
X332609Y102919D01*
X332652Y102846D01*
X332698Y102775D01*
X332747Y102707D01*
X332799Y102641D01*
X332855Y102577D01*
X332913Y102516D01*
X332974Y102458D01*
X333038Y102402D01*
X333104Y102350D01*
X333172Y102301D01*
X333243Y102255D01*
X333316Y102212D01*
X333391Y102173D01*
X333467Y102137D01*
X333545Y102104D01*
X333624Y102076D01*
X333705Y102051D01*
X333787Y102030D01*
X333869Y102012D01*
X333953Y101999D01*
X334036Y101989D01*
X334121Y101983D01*
X334205Y101981D01*
X336555Y101981D01*
X336555Y106680D01*
X336554Y106680D02*
X336552Y106757D01*
X336546Y106833D01*
X336537Y106910D01*
X336524Y106986D01*
X336507Y107061D01*
X336487Y107135D01*
X336462Y107208D01*
X336435Y107279D01*
X336404Y107350D01*
X336369Y107418D01*
X336331Y107485D01*
X336290Y107550D01*
X336246Y107613D01*
X336199Y107673D01*
X336148Y107732D01*
X336095Y107787D01*
X336040Y107840D01*
X335981Y107891D01*
X335921Y107938D01*
X335858Y107982D01*
X335793Y108023D01*
X335726Y108061D01*
X335658Y108096D01*
X335587Y108127D01*
X335516Y108154D01*
X335443Y108179D01*
X335369Y108199D01*
X335294Y108216D01*
X335218Y108229D01*
X335141Y108238D01*
X335065Y108244D01*
X334988Y108246D01*
X332900Y108246D01*
X342230Y101981D02*
X344318Y101981D01*
X342230Y101981D02*
X342153Y101983D01*
X342077Y101989D01*
X342000Y101998D01*
X341924Y102011D01*
X341849Y102028D01*
X341775Y102048D01*
X341702Y102073D01*
X341631Y102100D01*
X341560Y102131D01*
X341492Y102166D01*
X341425Y102204D01*
X341360Y102245D01*
X341297Y102289D01*
X341237Y102336D01*
X341178Y102387D01*
X341123Y102440D01*
X341070Y102495D01*
X341019Y102554D01*
X340972Y102614D01*
X340928Y102677D01*
X340887Y102742D01*
X340849Y102809D01*
X340814Y102877D01*
X340783Y102948D01*
X340756Y103019D01*
X340731Y103092D01*
X340711Y103166D01*
X340694Y103241D01*
X340681Y103317D01*
X340672Y103394D01*
X340666Y103470D01*
X340664Y103547D01*
X340663Y103547D02*
X340663Y106680D01*
X340664Y106680D02*
X340666Y106757D01*
X340672Y106833D01*
X340681Y106910D01*
X340694Y106986D01*
X340711Y107061D01*
X340731Y107135D01*
X340756Y107208D01*
X340783Y107279D01*
X340814Y107350D01*
X340849Y107418D01*
X340887Y107485D01*
X340928Y107550D01*
X340972Y107613D01*
X341019Y107673D01*
X341070Y107732D01*
X341123Y107787D01*
X341178Y107840D01*
X341237Y107891D01*
X341297Y107938D01*
X341360Y107982D01*
X341425Y108023D01*
X341492Y108061D01*
X341560Y108096D01*
X341631Y108127D01*
X341702Y108154D01*
X341775Y108179D01*
X341849Y108199D01*
X341924Y108216D01*
X342000Y108229D01*
X342077Y108238D01*
X342153Y108244D01*
X342230Y108246D01*
X344318Y108246D01*
X353064Y107202D02*
X355674Y107202D01*
X355674Y107203D02*
X355775Y107201D01*
X355876Y107195D01*
X355977Y107185D01*
X356077Y107172D01*
X356177Y107154D01*
X356276Y107133D01*
X356374Y107107D01*
X356471Y107078D01*
X356567Y107046D01*
X356661Y107009D01*
X356754Y106969D01*
X356846Y106925D01*
X356935Y106878D01*
X357023Y106827D01*
X357109Y106773D01*
X357192Y106716D01*
X357274Y106656D01*
X357352Y106592D01*
X357429Y106526D01*
X357502Y106456D01*
X357573Y106384D01*
X357641Y106309D01*
X357706Y106231D01*
X357768Y106151D01*
X357827Y106069D01*
X357883Y105984D01*
X357935Y105897D01*
X357984Y105809D01*
X358030Y105718D01*
X358071Y105626D01*
X358110Y105532D01*
X358144Y105437D01*
X358175Y105341D01*
X358202Y105243D01*
X358226Y105145D01*
X358245Y105045D01*
X358261Y104945D01*
X358273Y104845D01*
X358281Y104744D01*
X358285Y104643D01*
X358285Y104541D01*
X358281Y104440D01*
X358273Y104339D01*
X358261Y104239D01*
X358245Y104139D01*
X358226Y104039D01*
X358202Y103941D01*
X358175Y103843D01*
X358144Y103747D01*
X358110Y103652D01*
X358071Y103558D01*
X358030Y103466D01*
X357984Y103375D01*
X357935Y103286D01*
X357883Y103200D01*
X357827Y103115D01*
X357768Y103033D01*
X357706Y102953D01*
X357641Y102875D01*
X357573Y102800D01*
X357502Y102728D01*
X357429Y102658D01*
X357352Y102592D01*
X357274Y102528D01*
X357192Y102468D01*
X357109Y102411D01*
X357023Y102357D01*
X356935Y102306D01*
X356846Y102259D01*
X356754Y102215D01*
X356661Y102175D01*
X356567Y102138D01*
X356471Y102106D01*
X356374Y102077D01*
X356276Y102051D01*
X356177Y102030D01*
X356077Y102012D01*
X355977Y101999D01*
X355876Y101989D01*
X355775Y101983D01*
X355674Y101981D01*
X353064Y101981D01*
X353064Y111379D01*
X355674Y111379D01*
X355764Y111377D01*
X355853Y111371D01*
X355943Y111362D01*
X356032Y111348D01*
X356120Y111331D01*
X356207Y111310D01*
X356294Y111285D01*
X356379Y111256D01*
X356463Y111224D01*
X356545Y111189D01*
X356626Y111149D01*
X356705Y111107D01*
X356782Y111061D01*
X356857Y111011D01*
X356930Y110959D01*
X357001Y110903D01*
X357069Y110845D01*
X357134Y110783D01*
X357197Y110719D01*
X357257Y110652D01*
X357314Y110583D01*
X357368Y110511D01*
X357419Y110437D01*
X357467Y110361D01*
X357511Y110283D01*
X357552Y110203D01*
X357590Y110121D01*
X357624Y110038D01*
X357654Y109953D01*
X357681Y109867D01*
X357704Y109781D01*
X357723Y109693D01*
X357738Y109604D01*
X357750Y109515D01*
X357758Y109426D01*
X357762Y109336D01*
X357762Y109246D01*
X357758Y109156D01*
X357750Y109067D01*
X357738Y108978D01*
X357723Y108889D01*
X357704Y108801D01*
X357681Y108715D01*
X357654Y108629D01*
X357624Y108544D01*
X357590Y108461D01*
X357552Y108379D01*
X357511Y108299D01*
X357467Y108221D01*
X357419Y108145D01*
X357368Y108071D01*
X357314Y107999D01*
X357257Y107930D01*
X357197Y107863D01*
X357134Y107799D01*
X357069Y107737D01*
X357001Y107679D01*
X356930Y107623D01*
X356857Y107571D01*
X356782Y107521D01*
X356705Y107475D01*
X356626Y107433D01*
X356545Y107393D01*
X356463Y107358D01*
X356379Y107326D01*
X356294Y107297D01*
X356207Y107272D01*
X356120Y107251D01*
X356032Y107234D01*
X355943Y107220D01*
X355853Y107211D01*
X355764Y107205D01*
X355674Y107203D01*
X361378Y102503D02*
X361378Y101981D01*
X361378Y102503D02*
X361900Y102503D01*
X361900Y101981D01*
X361378Y101981D01*
X373134Y101981D02*
X373223Y101983D01*
X373311Y101989D01*
X373399Y101998D01*
X373487Y102011D01*
X373574Y102028D01*
X373660Y102048D01*
X373745Y102073D01*
X373830Y102100D01*
X373913Y102132D01*
X373994Y102166D01*
X374074Y102205D01*
X374152Y102246D01*
X374229Y102291D01*
X374303Y102339D01*
X374376Y102390D01*
X374446Y102444D01*
X374513Y102502D01*
X374579Y102562D01*
X374641Y102624D01*
X374701Y102690D01*
X374759Y102757D01*
X374813Y102827D01*
X374864Y102900D01*
X374912Y102974D01*
X374957Y103051D01*
X374998Y103129D01*
X375037Y103209D01*
X375071Y103290D01*
X375103Y103373D01*
X375130Y103458D01*
X375155Y103543D01*
X375175Y103629D01*
X375192Y103716D01*
X375205Y103804D01*
X375214Y103892D01*
X375220Y103980D01*
X375222Y104069D01*
X373134Y101981D02*
X373005Y101983D01*
X372876Y101989D01*
X372747Y101998D01*
X372619Y102011D01*
X372491Y102028D01*
X372364Y102049D01*
X372237Y102073D01*
X372111Y102101D01*
X371986Y102133D01*
X371862Y102168D01*
X371739Y102207D01*
X371617Y102250D01*
X371497Y102296D01*
X371378Y102346D01*
X371260Y102399D01*
X371144Y102455D01*
X371030Y102515D01*
X370917Y102578D01*
X370807Y102645D01*
X370698Y102714D01*
X370592Y102787D01*
X370487Y102863D01*
X370385Y102942D01*
X370286Y103024D01*
X370188Y103108D01*
X370093Y103196D01*
X370001Y103286D01*
X370263Y109291D02*
X370265Y109380D01*
X370271Y109468D01*
X370280Y109556D01*
X370293Y109644D01*
X370310Y109731D01*
X370330Y109817D01*
X370355Y109902D01*
X370382Y109987D01*
X370414Y110070D01*
X370448Y110151D01*
X370487Y110231D01*
X370528Y110309D01*
X370573Y110386D01*
X370621Y110460D01*
X370672Y110533D01*
X370726Y110603D01*
X370784Y110670D01*
X370844Y110736D01*
X370906Y110798D01*
X370972Y110858D01*
X371039Y110916D01*
X371109Y110970D01*
X371182Y111021D01*
X371256Y111069D01*
X371333Y111114D01*
X371411Y111155D01*
X371491Y111194D01*
X371572Y111228D01*
X371655Y111260D01*
X371740Y111287D01*
X371825Y111312D01*
X371911Y111332D01*
X371998Y111349D01*
X372086Y111362D01*
X372174Y111371D01*
X372262Y111377D01*
X372351Y111379D01*
X372350Y111379D02*
X372470Y111377D01*
X372590Y111372D01*
X372710Y111362D01*
X372829Y111350D01*
X372948Y111333D01*
X373066Y111313D01*
X373184Y111289D01*
X373300Y111262D01*
X373416Y111231D01*
X373531Y111197D01*
X373645Y111159D01*
X373758Y111117D01*
X373869Y111072D01*
X373979Y111024D01*
X374087Y110973D01*
X374194Y110918D01*
X374299Y110860D01*
X374402Y110798D01*
X374503Y110734D01*
X374603Y110666D01*
X374700Y110596D01*
X371306Y107464D02*
X371228Y107512D01*
X371152Y107564D01*
X371079Y107618D01*
X371008Y107676D01*
X370939Y107737D01*
X370873Y107801D01*
X370810Y107868D01*
X370750Y107937D01*
X370693Y108009D01*
X370639Y108083D01*
X370589Y108160D01*
X370541Y108239D01*
X370498Y108319D01*
X370457Y108402D01*
X370421Y108486D01*
X370388Y108571D01*
X370359Y108658D01*
X370333Y108747D01*
X370311Y108836D01*
X370294Y108926D01*
X370280Y109016D01*
X370270Y109108D01*
X370264Y109199D01*
X370262Y109291D01*
X374178Y105896D02*
X374256Y105848D01*
X374332Y105796D01*
X374405Y105742D01*
X374476Y105684D01*
X374545Y105623D01*
X374611Y105559D01*
X374674Y105492D01*
X374734Y105423D01*
X374791Y105351D01*
X374845Y105277D01*
X374895Y105200D01*
X374943Y105121D01*
X374986Y105041D01*
X375027Y104958D01*
X375063Y104874D01*
X375096Y104789D01*
X375125Y104702D01*
X375151Y104613D01*
X375173Y104524D01*
X375190Y104434D01*
X375204Y104344D01*
X375214Y104252D01*
X375220Y104161D01*
X375222Y104069D01*
X374178Y105897D02*
X371306Y107463D01*
X378708Y108246D02*
X378708Y101981D01*
X378447Y110857D02*
X378447Y111379D01*
X378969Y111379D01*
X378969Y110857D01*
X378447Y110857D01*
X382890Y108246D02*
X382890Y101981D01*
X382890Y108246D02*
X387589Y108246D01*
X387666Y108244D01*
X387742Y108238D01*
X387819Y108229D01*
X387895Y108216D01*
X387970Y108199D01*
X388044Y108179D01*
X388117Y108154D01*
X388188Y108127D01*
X388259Y108096D01*
X388327Y108061D01*
X388394Y108023D01*
X388459Y107982D01*
X388522Y107938D01*
X388582Y107891D01*
X388641Y107840D01*
X388696Y107787D01*
X388749Y107732D01*
X388800Y107673D01*
X388847Y107613D01*
X388891Y107550D01*
X388932Y107485D01*
X388970Y107418D01*
X389005Y107350D01*
X389036Y107279D01*
X389063Y107208D01*
X389088Y107135D01*
X389108Y107061D01*
X389125Y106986D01*
X389138Y106910D01*
X389147Y106833D01*
X389153Y106757D01*
X389155Y106680D01*
X389155Y101981D01*
X386023Y101981D02*
X386023Y108246D01*
D12*
X241935Y127635D02*
X241935Y141605D01*
X245816Y141605D01*
X245939Y141603D01*
X246062Y141597D01*
X246185Y141587D01*
X246307Y141574D01*
X246429Y141556D01*
X246550Y141535D01*
X246671Y141510D01*
X246791Y141481D01*
X246909Y141448D01*
X247027Y141411D01*
X247143Y141371D01*
X247258Y141327D01*
X247372Y141279D01*
X247484Y141228D01*
X247594Y141174D01*
X247703Y141115D01*
X247810Y141054D01*
X247914Y140989D01*
X248017Y140921D01*
X248117Y140849D01*
X248215Y140775D01*
X248311Y140697D01*
X248404Y140616D01*
X248494Y140533D01*
X248582Y140446D01*
X248667Y140357D01*
X248749Y140266D01*
X248828Y140171D01*
X248904Y140074D01*
X248977Y139975D01*
X249047Y139874D01*
X249114Y139770D01*
X249177Y139664D01*
X249237Y139557D01*
X249293Y139447D01*
X249346Y139336D01*
X249396Y139223D01*
X249441Y139109D01*
X249484Y138993D01*
X249522Y138876D01*
X249557Y138758D01*
X249588Y138639D01*
X249615Y138519D01*
X249638Y138398D01*
X249657Y138276D01*
X249673Y138154D01*
X249685Y138032D01*
X249693Y137909D01*
X249697Y137786D01*
X249697Y137662D01*
X249693Y137539D01*
X249685Y137416D01*
X249673Y137294D01*
X249657Y137172D01*
X249638Y137050D01*
X249615Y136929D01*
X249588Y136809D01*
X249557Y136690D01*
X249522Y136572D01*
X249484Y136455D01*
X249441Y136339D01*
X249396Y136225D01*
X249346Y136112D01*
X249293Y136001D01*
X249237Y135891D01*
X249177Y135784D01*
X249114Y135678D01*
X249047Y135574D01*
X248977Y135473D01*
X248904Y135374D01*
X248828Y135277D01*
X248749Y135182D01*
X248667Y135091D01*
X248582Y135002D01*
X248494Y134915D01*
X248404Y134832D01*
X248311Y134751D01*
X248215Y134673D01*
X248117Y134599D01*
X248017Y134527D01*
X247914Y134459D01*
X247810Y134394D01*
X247703Y134333D01*
X247594Y134274D01*
X247484Y134220D01*
X247372Y134169D01*
X247258Y134121D01*
X247143Y134077D01*
X247027Y134037D01*
X246909Y134000D01*
X246791Y133967D01*
X246671Y133938D01*
X246550Y133913D01*
X246429Y133892D01*
X246307Y133874D01*
X246185Y133861D01*
X246062Y133851D01*
X245939Y133845D01*
X245816Y133843D01*
X245816Y133844D02*
X241935Y133844D01*
X255990Y133068D02*
X259871Y131516D01*
X255990Y133068D02*
X255908Y133103D01*
X255828Y133141D01*
X255750Y133183D01*
X255674Y133228D01*
X255600Y133276D01*
X255528Y133328D01*
X255458Y133383D01*
X255391Y133441D01*
X255326Y133501D01*
X255265Y133565D01*
X255206Y133631D01*
X255150Y133700D01*
X255097Y133771D01*
X255047Y133844D01*
X255001Y133920D01*
X254957Y133997D01*
X254918Y134076D01*
X254882Y134157D01*
X254849Y134240D01*
X254820Y134324D01*
X254795Y134409D01*
X254774Y134495D01*
X254756Y134582D01*
X254743Y134669D01*
X254733Y134757D01*
X254727Y134846D01*
X254725Y134934D01*
X254727Y135023D01*
X254733Y135111D01*
X254742Y135199D01*
X254756Y135287D01*
X254773Y135374D01*
X254794Y135460D01*
X254819Y135545D01*
X254848Y135629D01*
X254880Y135711D01*
X254916Y135792D01*
X254956Y135872D01*
X254999Y135949D01*
X255045Y136025D01*
X255095Y136098D01*
X255147Y136170D01*
X255203Y136238D01*
X255262Y136305D01*
X255324Y136368D01*
X255388Y136429D01*
X255455Y136487D01*
X255525Y136542D01*
X255597Y136594D01*
X255671Y136642D01*
X255747Y136688D01*
X255825Y136730D01*
X255905Y136768D01*
X255987Y136803D01*
X256070Y136834D01*
X256154Y136862D01*
X256239Y136885D01*
X256325Y136905D01*
X256413Y136922D01*
X256500Y136934D01*
X256589Y136943D01*
X256677Y136947D01*
X256766Y136948D01*
X256978Y136943D01*
X257189Y136932D01*
X257401Y136916D01*
X257611Y136895D01*
X257822Y136869D01*
X258031Y136838D01*
X258240Y136802D01*
X258448Y136762D01*
X258655Y136716D01*
X258861Y136665D01*
X259065Y136609D01*
X259268Y136548D01*
X259470Y136482D01*
X259670Y136412D01*
X259868Y136337D01*
X260064Y136257D01*
X260258Y136172D01*
X259870Y131515D02*
X259952Y131480D01*
X260032Y131442D01*
X260110Y131400D01*
X260186Y131355D01*
X260260Y131307D01*
X260332Y131255D01*
X260402Y131200D01*
X260469Y131142D01*
X260534Y131082D01*
X260595Y131018D01*
X260654Y130952D01*
X260710Y130883D01*
X260763Y130812D01*
X260813Y130739D01*
X260859Y130663D01*
X260903Y130586D01*
X260942Y130507D01*
X260978Y130426D01*
X261011Y130343D01*
X261040Y130259D01*
X261065Y130174D01*
X261086Y130088D01*
X261104Y130001D01*
X261117Y129914D01*
X261127Y129826D01*
X261133Y129737D01*
X261135Y129649D01*
X261133Y129560D01*
X261127Y129472D01*
X261118Y129384D01*
X261104Y129296D01*
X261087Y129209D01*
X261066Y129123D01*
X261041Y129038D01*
X261012Y128954D01*
X260980Y128872D01*
X260944Y128791D01*
X260904Y128711D01*
X260861Y128634D01*
X260815Y128558D01*
X260765Y128485D01*
X260713Y128413D01*
X260657Y128345D01*
X260598Y128278D01*
X260536Y128215D01*
X260472Y128154D01*
X260405Y128096D01*
X260335Y128041D01*
X260263Y127989D01*
X260189Y127941D01*
X260113Y127895D01*
X260035Y127853D01*
X259955Y127815D01*
X259873Y127780D01*
X259790Y127749D01*
X259706Y127721D01*
X259621Y127698D01*
X259535Y127678D01*
X259447Y127661D01*
X259360Y127649D01*
X259271Y127640D01*
X259183Y127636D01*
X259094Y127635D01*
X259094Y127634D02*
X258783Y127642D01*
X258472Y127658D01*
X258162Y127681D01*
X257852Y127711D01*
X257543Y127748D01*
X257234Y127793D01*
X256928Y127845D01*
X256622Y127905D01*
X256318Y127971D01*
X256015Y128045D01*
X255715Y128126D01*
X255416Y128214D01*
X255120Y128309D01*
X254825Y128410D01*
X269018Y127635D02*
X272898Y127635D01*
X269018Y127635D02*
X268924Y127637D01*
X268831Y127643D01*
X268737Y127652D01*
X268645Y127665D01*
X268552Y127682D01*
X268461Y127703D01*
X268370Y127727D01*
X268281Y127755D01*
X268192Y127786D01*
X268106Y127821D01*
X268020Y127860D01*
X267936Y127902D01*
X267854Y127947D01*
X267774Y127995D01*
X267696Y128047D01*
X267619Y128102D01*
X267546Y128160D01*
X267474Y128220D01*
X267405Y128284D01*
X267339Y128350D01*
X267275Y128419D01*
X267215Y128491D01*
X267157Y128564D01*
X267102Y128641D01*
X267050Y128719D01*
X267002Y128799D01*
X266957Y128881D01*
X266915Y128965D01*
X266876Y129051D01*
X266841Y129137D01*
X266810Y129226D01*
X266782Y129315D01*
X266758Y129406D01*
X266737Y129497D01*
X266720Y129590D01*
X266707Y129682D01*
X266698Y129776D01*
X266692Y129869D01*
X266690Y129963D01*
X266689Y129963D02*
X266689Y133844D01*
X266690Y133844D02*
X266692Y133955D01*
X266698Y134065D01*
X266708Y134176D01*
X266722Y134286D01*
X266739Y134395D01*
X266761Y134504D01*
X266786Y134612D01*
X266816Y134718D01*
X266849Y134824D01*
X266886Y134929D01*
X266926Y135032D01*
X266971Y135133D01*
X267018Y135233D01*
X267070Y135332D01*
X267125Y135428D01*
X267183Y135522D01*
X267244Y135614D01*
X267309Y135704D01*
X267377Y135792D01*
X267448Y135877D01*
X267522Y135959D01*
X267599Y136039D01*
X267679Y136116D01*
X267761Y136190D01*
X267846Y136261D01*
X267934Y136329D01*
X268024Y136394D01*
X268116Y136455D01*
X268210Y136513D01*
X268306Y136568D01*
X268405Y136620D01*
X268505Y136667D01*
X268606Y136712D01*
X268709Y136752D01*
X268814Y136789D01*
X268920Y136822D01*
X269026Y136852D01*
X269134Y136877D01*
X269243Y136899D01*
X269352Y136916D01*
X269462Y136930D01*
X269573Y136940D01*
X269683Y136946D01*
X269794Y136948D01*
X269905Y136946D01*
X270015Y136940D01*
X270126Y136930D01*
X270236Y136916D01*
X270345Y136899D01*
X270454Y136877D01*
X270562Y136852D01*
X270668Y136822D01*
X270774Y136789D01*
X270879Y136752D01*
X270982Y136712D01*
X271083Y136667D01*
X271183Y136620D01*
X271282Y136568D01*
X271378Y136513D01*
X271472Y136455D01*
X271564Y136394D01*
X271654Y136329D01*
X271742Y136261D01*
X271827Y136190D01*
X271909Y136116D01*
X271989Y136039D01*
X272066Y135959D01*
X272140Y135877D01*
X272211Y135792D01*
X272279Y135704D01*
X272344Y135614D01*
X272405Y135522D01*
X272463Y135428D01*
X272518Y135332D01*
X272570Y135233D01*
X272617Y135133D01*
X272662Y135032D01*
X272702Y134929D01*
X272739Y134824D01*
X272772Y134718D01*
X272802Y134612D01*
X272827Y134504D01*
X272849Y134395D01*
X272866Y134286D01*
X272880Y134176D01*
X272890Y134065D01*
X272896Y133955D01*
X272898Y133844D01*
X272898Y132292D01*
X266689Y132292D01*
X279009Y129963D02*
X279009Y136948D01*
X279009Y129963D02*
X279011Y129869D01*
X279017Y129776D01*
X279026Y129682D01*
X279039Y129590D01*
X279056Y129497D01*
X279077Y129406D01*
X279101Y129315D01*
X279129Y129226D01*
X279160Y129137D01*
X279195Y129051D01*
X279234Y128965D01*
X279276Y128881D01*
X279321Y128799D01*
X279369Y128719D01*
X279421Y128641D01*
X279476Y128564D01*
X279534Y128491D01*
X279594Y128419D01*
X279658Y128350D01*
X279724Y128284D01*
X279793Y128220D01*
X279865Y128160D01*
X279938Y128102D01*
X280015Y128047D01*
X280093Y127995D01*
X280173Y127947D01*
X280255Y127902D01*
X280339Y127860D01*
X280425Y127821D01*
X280511Y127786D01*
X280600Y127755D01*
X280689Y127727D01*
X280780Y127703D01*
X280871Y127682D01*
X280964Y127665D01*
X281056Y127652D01*
X281150Y127643D01*
X281243Y127637D01*
X281337Y127635D01*
X285218Y127635D01*
X285218Y136948D01*
X297466Y141605D02*
X297466Y127635D01*
X293586Y127635D01*
X293492Y127637D01*
X293399Y127643D01*
X293305Y127652D01*
X293213Y127665D01*
X293120Y127682D01*
X293029Y127703D01*
X292938Y127727D01*
X292849Y127755D01*
X292760Y127786D01*
X292674Y127821D01*
X292588Y127860D01*
X292504Y127902D01*
X292422Y127947D01*
X292342Y127995D01*
X292264Y128047D01*
X292187Y128102D01*
X292114Y128160D01*
X292042Y128220D01*
X291973Y128284D01*
X291907Y128350D01*
X291843Y128419D01*
X291783Y128491D01*
X291725Y128564D01*
X291670Y128641D01*
X291618Y128719D01*
X291570Y128799D01*
X291525Y128881D01*
X291483Y128965D01*
X291444Y129051D01*
X291409Y129137D01*
X291378Y129226D01*
X291350Y129315D01*
X291326Y129406D01*
X291305Y129497D01*
X291288Y129590D01*
X291275Y129682D01*
X291266Y129776D01*
X291260Y129869D01*
X291258Y129963D01*
X291257Y129963D02*
X291257Y134620D01*
X291258Y134620D02*
X291260Y134714D01*
X291266Y134807D01*
X291275Y134901D01*
X291288Y134993D01*
X291305Y135086D01*
X291326Y135177D01*
X291350Y135268D01*
X291378Y135357D01*
X291409Y135446D01*
X291444Y135532D01*
X291483Y135618D01*
X291525Y135702D01*
X291570Y135784D01*
X291618Y135864D01*
X291670Y135942D01*
X291725Y136019D01*
X291783Y136092D01*
X291843Y136164D01*
X291907Y136233D01*
X291973Y136299D01*
X292042Y136363D01*
X292114Y136423D01*
X292187Y136481D01*
X292264Y136536D01*
X292342Y136588D01*
X292422Y136636D01*
X292504Y136681D01*
X292588Y136723D01*
X292674Y136762D01*
X292760Y136797D01*
X292849Y136828D01*
X292938Y136856D01*
X293029Y136880D01*
X293120Y136901D01*
X293213Y136918D01*
X293305Y136931D01*
X293399Y136940D01*
X293492Y136946D01*
X293586Y136948D01*
X297466Y136948D01*
X303648Y133844D02*
X303648Y130739D01*
X303649Y133844D02*
X303651Y133955D01*
X303657Y134065D01*
X303667Y134176D01*
X303681Y134286D01*
X303698Y134395D01*
X303720Y134504D01*
X303745Y134612D01*
X303775Y134718D01*
X303808Y134824D01*
X303845Y134929D01*
X303885Y135032D01*
X303930Y135133D01*
X303977Y135233D01*
X304029Y135332D01*
X304084Y135428D01*
X304142Y135522D01*
X304203Y135614D01*
X304268Y135704D01*
X304336Y135792D01*
X304407Y135877D01*
X304481Y135959D01*
X304558Y136039D01*
X304638Y136116D01*
X304720Y136190D01*
X304805Y136261D01*
X304893Y136329D01*
X304983Y136394D01*
X305075Y136455D01*
X305169Y136513D01*
X305265Y136568D01*
X305364Y136620D01*
X305464Y136667D01*
X305565Y136712D01*
X305668Y136752D01*
X305773Y136789D01*
X305879Y136822D01*
X305985Y136852D01*
X306093Y136877D01*
X306202Y136899D01*
X306311Y136916D01*
X306421Y136930D01*
X306532Y136940D01*
X306642Y136946D01*
X306753Y136948D01*
X306864Y136946D01*
X306974Y136940D01*
X307085Y136930D01*
X307195Y136916D01*
X307304Y136899D01*
X307413Y136877D01*
X307521Y136852D01*
X307627Y136822D01*
X307733Y136789D01*
X307838Y136752D01*
X307941Y136712D01*
X308042Y136667D01*
X308142Y136620D01*
X308241Y136568D01*
X308337Y136513D01*
X308431Y136455D01*
X308523Y136394D01*
X308613Y136329D01*
X308701Y136261D01*
X308786Y136190D01*
X308868Y136116D01*
X308948Y136039D01*
X309025Y135959D01*
X309099Y135877D01*
X309170Y135792D01*
X309238Y135704D01*
X309303Y135614D01*
X309364Y135522D01*
X309422Y135428D01*
X309477Y135332D01*
X309529Y135233D01*
X309576Y135133D01*
X309621Y135032D01*
X309661Y134929D01*
X309698Y134824D01*
X309731Y134718D01*
X309761Y134612D01*
X309786Y134504D01*
X309808Y134395D01*
X309825Y134286D01*
X309839Y134176D01*
X309849Y134065D01*
X309855Y133955D01*
X309857Y133844D01*
X309857Y130739D01*
X309855Y130628D01*
X309849Y130518D01*
X309839Y130407D01*
X309825Y130297D01*
X309808Y130188D01*
X309786Y130079D01*
X309761Y129971D01*
X309731Y129865D01*
X309698Y129759D01*
X309661Y129654D01*
X309621Y129551D01*
X309576Y129450D01*
X309529Y129350D01*
X309477Y129251D01*
X309422Y129155D01*
X309364Y129061D01*
X309303Y128969D01*
X309238Y128879D01*
X309170Y128791D01*
X309099Y128706D01*
X309025Y128624D01*
X308948Y128544D01*
X308868Y128467D01*
X308786Y128393D01*
X308701Y128322D01*
X308613Y128254D01*
X308523Y128189D01*
X308431Y128128D01*
X308337Y128070D01*
X308241Y128015D01*
X308142Y127963D01*
X308042Y127916D01*
X307941Y127871D01*
X307838Y127831D01*
X307733Y127794D01*
X307627Y127761D01*
X307521Y127731D01*
X307413Y127706D01*
X307304Y127684D01*
X307195Y127667D01*
X307085Y127653D01*
X306974Y127643D01*
X306864Y127637D01*
X306753Y127635D01*
X306642Y127637D01*
X306532Y127643D01*
X306421Y127653D01*
X306311Y127667D01*
X306202Y127684D01*
X306093Y127706D01*
X305985Y127731D01*
X305879Y127761D01*
X305773Y127794D01*
X305668Y127831D01*
X305565Y127871D01*
X305464Y127916D01*
X305364Y127963D01*
X305265Y128015D01*
X305169Y128070D01*
X305075Y128128D01*
X304983Y128189D01*
X304893Y128254D01*
X304805Y128322D01*
X304720Y128393D01*
X304638Y128467D01*
X304558Y128544D01*
X304481Y128624D01*
X304407Y128706D01*
X304336Y128791D01*
X304268Y128879D01*
X304203Y128969D01*
X304142Y129061D01*
X304084Y129155D01*
X304029Y129251D01*
X303977Y129350D01*
X303930Y129450D01*
X303885Y129551D01*
X303845Y129654D01*
X303808Y129759D01*
X303775Y129865D01*
X303745Y129971D01*
X303720Y130079D01*
X303698Y130188D01*
X303681Y130297D01*
X303667Y130407D01*
X303657Y130518D01*
X303651Y130628D01*
X303649Y130739D01*
X318249Y127635D02*
X315145Y141605D01*
X321354Y136948D02*
X318249Y127635D01*
X324458Y127635D02*
X321354Y136948D01*
X327563Y141605D02*
X324458Y127635D01*
X332761Y127635D02*
X332761Y136948D01*
X332373Y140829D02*
X332373Y141605D01*
X333149Y141605D01*
X333149Y140829D01*
X332373Y140829D01*
X344463Y141605D02*
X344463Y127635D01*
X340583Y127635D01*
X340489Y127637D01*
X340396Y127643D01*
X340302Y127652D01*
X340210Y127665D01*
X340117Y127682D01*
X340026Y127703D01*
X339935Y127727D01*
X339846Y127755D01*
X339757Y127786D01*
X339671Y127821D01*
X339585Y127860D01*
X339501Y127902D01*
X339419Y127947D01*
X339339Y127995D01*
X339261Y128047D01*
X339184Y128102D01*
X339111Y128160D01*
X339039Y128220D01*
X338970Y128284D01*
X338904Y128350D01*
X338840Y128419D01*
X338780Y128491D01*
X338722Y128564D01*
X338667Y128641D01*
X338615Y128719D01*
X338567Y128799D01*
X338522Y128881D01*
X338480Y128965D01*
X338441Y129051D01*
X338406Y129137D01*
X338375Y129226D01*
X338347Y129315D01*
X338323Y129406D01*
X338302Y129497D01*
X338285Y129590D01*
X338272Y129682D01*
X338263Y129776D01*
X338257Y129869D01*
X338255Y129963D01*
X338255Y134620D01*
X338257Y134714D01*
X338263Y134807D01*
X338272Y134901D01*
X338285Y134993D01*
X338302Y135086D01*
X338323Y135177D01*
X338347Y135268D01*
X338375Y135357D01*
X338406Y135446D01*
X338441Y135532D01*
X338480Y135618D01*
X338522Y135702D01*
X338567Y135784D01*
X338615Y135864D01*
X338667Y135942D01*
X338722Y136019D01*
X338780Y136092D01*
X338840Y136164D01*
X338904Y136233D01*
X338970Y136299D01*
X339039Y136363D01*
X339111Y136423D01*
X339184Y136481D01*
X339261Y136536D01*
X339339Y136588D01*
X339419Y136636D01*
X339501Y136681D01*
X339585Y136723D01*
X339671Y136762D01*
X339757Y136797D01*
X339846Y136828D01*
X339935Y136856D01*
X340026Y136880D01*
X340117Y136901D01*
X340210Y136918D01*
X340302Y136931D01*
X340396Y136940D01*
X340489Y136946D01*
X340583Y136948D01*
X344463Y136948D01*
X352903Y127635D02*
X356783Y127635D01*
X352903Y127635D02*
X352809Y127637D01*
X352716Y127643D01*
X352622Y127652D01*
X352530Y127665D01*
X352437Y127682D01*
X352346Y127703D01*
X352255Y127727D01*
X352166Y127755D01*
X352077Y127786D01*
X351991Y127821D01*
X351905Y127860D01*
X351821Y127902D01*
X351739Y127947D01*
X351659Y127995D01*
X351581Y128047D01*
X351504Y128102D01*
X351431Y128160D01*
X351359Y128220D01*
X351290Y128284D01*
X351224Y128350D01*
X351160Y128419D01*
X351100Y128491D01*
X351042Y128564D01*
X350987Y128641D01*
X350935Y128719D01*
X350887Y128799D01*
X350842Y128881D01*
X350800Y128965D01*
X350761Y129051D01*
X350726Y129137D01*
X350695Y129226D01*
X350667Y129315D01*
X350643Y129406D01*
X350622Y129497D01*
X350605Y129590D01*
X350592Y129682D01*
X350583Y129776D01*
X350577Y129869D01*
X350575Y129963D01*
X350574Y129963D02*
X350574Y134620D01*
X350575Y134620D02*
X350577Y134714D01*
X350583Y134807D01*
X350592Y134901D01*
X350605Y134993D01*
X350622Y135086D01*
X350643Y135177D01*
X350667Y135268D01*
X350695Y135357D01*
X350726Y135446D01*
X350761Y135532D01*
X350800Y135618D01*
X350842Y135702D01*
X350887Y135784D01*
X350935Y135864D01*
X350987Y135942D01*
X351042Y136019D01*
X351100Y136092D01*
X351160Y136164D01*
X351224Y136233D01*
X351290Y136299D01*
X351359Y136363D01*
X351431Y136423D01*
X351504Y136481D01*
X351581Y136536D01*
X351659Y136588D01*
X351739Y136636D01*
X351821Y136681D01*
X351905Y136723D01*
X351991Y136762D01*
X352077Y136797D01*
X352166Y136828D01*
X352255Y136856D01*
X352346Y136880D01*
X352437Y136901D01*
X352530Y136918D01*
X352622Y136931D01*
X352716Y136940D01*
X352809Y136946D01*
X352903Y136948D01*
X356783Y136948D01*
X356783Y125307D01*
X356781Y125211D01*
X356775Y125115D01*
X356765Y125019D01*
X356751Y124924D01*
X356733Y124829D01*
X356712Y124736D01*
X356686Y124643D01*
X356657Y124551D01*
X356624Y124461D01*
X356587Y124372D01*
X356546Y124285D01*
X356502Y124199D01*
X356455Y124115D01*
X356404Y124034D01*
X356350Y123954D01*
X356292Y123877D01*
X356231Y123802D01*
X356168Y123730D01*
X356101Y123661D01*
X356032Y123594D01*
X355960Y123531D01*
X355885Y123470D01*
X355808Y123412D01*
X355728Y123358D01*
X355647Y123307D01*
X355563Y123260D01*
X355477Y123216D01*
X355390Y123175D01*
X355301Y123138D01*
X355211Y123105D01*
X355119Y123076D01*
X355027Y123050D01*
X354933Y123029D01*
X354838Y123011D01*
X354743Y122997D01*
X354647Y122987D01*
X354551Y122981D01*
X354455Y122979D01*
X354455Y122978D02*
X351350Y122978D01*
X365294Y127635D02*
X369174Y127635D01*
X365294Y127635D02*
X365200Y127637D01*
X365107Y127643D01*
X365013Y127652D01*
X364921Y127665D01*
X364828Y127682D01*
X364737Y127703D01*
X364646Y127727D01*
X364557Y127755D01*
X364468Y127786D01*
X364382Y127821D01*
X364296Y127860D01*
X364212Y127902D01*
X364130Y127947D01*
X364050Y127995D01*
X363972Y128047D01*
X363895Y128102D01*
X363822Y128160D01*
X363750Y128220D01*
X363681Y128284D01*
X363615Y128350D01*
X363551Y128419D01*
X363491Y128491D01*
X363433Y128564D01*
X363378Y128641D01*
X363326Y128719D01*
X363278Y128799D01*
X363233Y128881D01*
X363191Y128965D01*
X363152Y129051D01*
X363117Y129137D01*
X363086Y129226D01*
X363058Y129315D01*
X363034Y129406D01*
X363013Y129497D01*
X362996Y129590D01*
X362983Y129682D01*
X362974Y129776D01*
X362968Y129869D01*
X362966Y129963D01*
X362965Y129963D02*
X362965Y133844D01*
X362966Y133844D02*
X362968Y133955D01*
X362974Y134065D01*
X362984Y134176D01*
X362998Y134286D01*
X363015Y134395D01*
X363037Y134504D01*
X363062Y134612D01*
X363092Y134718D01*
X363125Y134824D01*
X363162Y134929D01*
X363202Y135032D01*
X363247Y135133D01*
X363294Y135233D01*
X363346Y135332D01*
X363401Y135428D01*
X363459Y135522D01*
X363520Y135614D01*
X363585Y135704D01*
X363653Y135792D01*
X363724Y135877D01*
X363798Y135959D01*
X363875Y136039D01*
X363955Y136116D01*
X364037Y136190D01*
X364122Y136261D01*
X364210Y136329D01*
X364300Y136394D01*
X364392Y136455D01*
X364486Y136513D01*
X364582Y136568D01*
X364681Y136620D01*
X364781Y136667D01*
X364882Y136712D01*
X364985Y136752D01*
X365090Y136789D01*
X365196Y136822D01*
X365302Y136852D01*
X365410Y136877D01*
X365519Y136899D01*
X365628Y136916D01*
X365738Y136930D01*
X365849Y136940D01*
X365959Y136946D01*
X366070Y136948D01*
X366181Y136946D01*
X366291Y136940D01*
X366402Y136930D01*
X366512Y136916D01*
X366621Y136899D01*
X366730Y136877D01*
X366838Y136852D01*
X366944Y136822D01*
X367050Y136789D01*
X367155Y136752D01*
X367258Y136712D01*
X367359Y136667D01*
X367459Y136620D01*
X367558Y136568D01*
X367654Y136513D01*
X367748Y136455D01*
X367840Y136394D01*
X367930Y136329D01*
X368018Y136261D01*
X368103Y136190D01*
X368185Y136116D01*
X368265Y136039D01*
X368342Y135959D01*
X368416Y135877D01*
X368487Y135792D01*
X368555Y135704D01*
X368620Y135614D01*
X368681Y135522D01*
X368739Y135428D01*
X368794Y135332D01*
X368846Y135233D01*
X368893Y135133D01*
X368938Y135032D01*
X368978Y134929D01*
X369015Y134824D01*
X369048Y134718D01*
X369078Y134612D01*
X369103Y134504D01*
X369125Y134395D01*
X369142Y134286D01*
X369156Y134176D01*
X369166Y134065D01*
X369172Y133955D01*
X369174Y133844D01*
X369174Y132292D01*
X362965Y132292D01*
X373668Y136948D02*
X378324Y136948D01*
X375220Y141605D02*
X375220Y129963D01*
X375222Y129869D01*
X375228Y129776D01*
X375237Y129682D01*
X375250Y129590D01*
X375267Y129497D01*
X375288Y129406D01*
X375312Y129315D01*
X375340Y129226D01*
X375371Y129137D01*
X375406Y129051D01*
X375445Y128965D01*
X375487Y128881D01*
X375532Y128799D01*
X375580Y128719D01*
X375632Y128641D01*
X375687Y128564D01*
X375745Y128491D01*
X375805Y128419D01*
X375869Y128350D01*
X375935Y128284D01*
X376004Y128220D01*
X376076Y128160D01*
X376149Y128102D01*
X376226Y128047D01*
X376304Y127995D01*
X376384Y127947D01*
X376466Y127902D01*
X376550Y127860D01*
X376636Y127821D01*
X376722Y127786D01*
X376811Y127755D01*
X376900Y127727D01*
X376991Y127703D01*
X377082Y127682D01*
X377175Y127665D01*
X377267Y127652D01*
X377361Y127643D01*
X377454Y127637D01*
X377548Y127635D01*
X378324Y127635D01*
X384662Y133068D02*
X388543Y131516D01*
X384663Y133068D02*
X384581Y133103D01*
X384501Y133141D01*
X384423Y133183D01*
X384347Y133228D01*
X384273Y133276D01*
X384201Y133328D01*
X384131Y133383D01*
X384064Y133441D01*
X383999Y133501D01*
X383938Y133565D01*
X383879Y133631D01*
X383823Y133700D01*
X383770Y133771D01*
X383720Y133844D01*
X383674Y133920D01*
X383630Y133997D01*
X383591Y134076D01*
X383555Y134157D01*
X383522Y134240D01*
X383493Y134324D01*
X383468Y134409D01*
X383447Y134495D01*
X383429Y134582D01*
X383416Y134669D01*
X383406Y134757D01*
X383400Y134846D01*
X383398Y134934D01*
X383400Y135023D01*
X383406Y135111D01*
X383415Y135199D01*
X383429Y135287D01*
X383446Y135374D01*
X383467Y135460D01*
X383492Y135545D01*
X383521Y135629D01*
X383553Y135711D01*
X383589Y135792D01*
X383629Y135872D01*
X383672Y135949D01*
X383718Y136025D01*
X383768Y136098D01*
X383820Y136170D01*
X383876Y136238D01*
X383935Y136305D01*
X383997Y136368D01*
X384061Y136429D01*
X384128Y136487D01*
X384198Y136542D01*
X384270Y136594D01*
X384344Y136642D01*
X384420Y136688D01*
X384498Y136730D01*
X384578Y136768D01*
X384660Y136803D01*
X384743Y136834D01*
X384827Y136862D01*
X384912Y136885D01*
X384998Y136905D01*
X385086Y136922D01*
X385173Y136934D01*
X385262Y136943D01*
X385350Y136947D01*
X385439Y136948D01*
X385438Y136948D02*
X385650Y136943D01*
X385861Y136932D01*
X386073Y136916D01*
X386283Y136895D01*
X386494Y136869D01*
X386703Y136838D01*
X386912Y136802D01*
X387120Y136762D01*
X387327Y136716D01*
X387533Y136665D01*
X387737Y136609D01*
X387940Y136548D01*
X388142Y136482D01*
X388342Y136412D01*
X388540Y136337D01*
X388736Y136257D01*
X388930Y136172D01*
X388542Y131515D02*
X388624Y131480D01*
X388704Y131442D01*
X388782Y131400D01*
X388858Y131355D01*
X388932Y131307D01*
X389004Y131255D01*
X389074Y131200D01*
X389141Y131142D01*
X389206Y131082D01*
X389267Y131018D01*
X389326Y130952D01*
X389382Y130883D01*
X389435Y130812D01*
X389485Y130739D01*
X389531Y130663D01*
X389575Y130586D01*
X389614Y130507D01*
X389650Y130426D01*
X389683Y130343D01*
X389712Y130259D01*
X389737Y130174D01*
X389758Y130088D01*
X389776Y130001D01*
X389789Y129914D01*
X389799Y129826D01*
X389805Y129737D01*
X389807Y129649D01*
X389805Y129560D01*
X389799Y129472D01*
X389790Y129384D01*
X389776Y129296D01*
X389759Y129209D01*
X389738Y129123D01*
X389713Y129038D01*
X389684Y128954D01*
X389652Y128872D01*
X389616Y128791D01*
X389576Y128711D01*
X389533Y128634D01*
X389487Y128558D01*
X389437Y128485D01*
X389385Y128413D01*
X389329Y128345D01*
X389270Y128278D01*
X389208Y128215D01*
X389144Y128154D01*
X389077Y128096D01*
X389007Y128041D01*
X388935Y127989D01*
X388861Y127941D01*
X388785Y127895D01*
X388707Y127853D01*
X388627Y127815D01*
X388545Y127780D01*
X388462Y127749D01*
X388378Y127721D01*
X388293Y127698D01*
X388207Y127678D01*
X388119Y127661D01*
X388032Y127649D01*
X387943Y127640D01*
X387855Y127636D01*
X387766Y127635D01*
X387766Y127634D02*
X387455Y127642D01*
X387144Y127658D01*
X386834Y127681D01*
X386524Y127711D01*
X386215Y127748D01*
X385906Y127793D01*
X385600Y127845D01*
X385294Y127905D01*
X384990Y127971D01*
X384687Y128045D01*
X384387Y128126D01*
X384088Y128214D01*
X383792Y128309D01*
X383497Y128410D01*
D13*
X157400Y101600D02*
X147400Y97600D01*
X147400Y105600D01*
X157400Y101600D01*
D12*
X165900Y93350D02*
X138900Y93350D01*
X138900Y109850D01*
X165900Y109850D01*
X165900Y93350D01*
D14*
X158400Y101600D03*
D10*
X179324Y96268D02*
X183896Y96268D01*
X179324Y96268D02*
X179324Y97538D01*
X179326Y97607D01*
X179331Y97675D01*
X179341Y97743D01*
X179354Y97811D01*
X179370Y97878D01*
X179390Y97944D01*
X179414Y98008D01*
X179441Y98071D01*
X179472Y98133D01*
X179506Y98193D01*
X179543Y98251D01*
X179583Y98307D01*
X179626Y98360D01*
X179672Y98411D01*
X179721Y98460D01*
X179772Y98506D01*
X179825Y98549D01*
X179881Y98589D01*
X179939Y98626D01*
X179999Y98660D01*
X180061Y98691D01*
X180124Y98718D01*
X180188Y98742D01*
X180254Y98762D01*
X180321Y98778D01*
X180389Y98791D01*
X180457Y98801D01*
X180525Y98806D01*
X180594Y98808D01*
X182626Y98808D01*
X182695Y98806D01*
X182763Y98801D01*
X182831Y98791D01*
X182899Y98778D01*
X182966Y98762D01*
X183032Y98742D01*
X183096Y98718D01*
X183159Y98691D01*
X183221Y98660D01*
X183281Y98626D01*
X183339Y98589D01*
X183395Y98549D01*
X183448Y98506D01*
X183499Y98460D01*
X183548Y98411D01*
X183594Y98360D01*
X183637Y98307D01*
X183677Y98251D01*
X183714Y98193D01*
X183748Y98133D01*
X183779Y98071D01*
X183806Y98008D01*
X183830Y97944D01*
X183850Y97878D01*
X183866Y97811D01*
X183879Y97743D01*
X183889Y97675D01*
X183894Y97607D01*
X183896Y97538D01*
X183896Y96268D01*
X179324Y102389D02*
X179326Y102455D01*
X179332Y102522D01*
X179341Y102587D01*
X179355Y102653D01*
X179372Y102717D01*
X179393Y102780D01*
X179417Y102842D01*
X179446Y102902D01*
X179477Y102961D01*
X179512Y103017D01*
X179550Y103072D01*
X179591Y103124D01*
X179636Y103173D01*
X179683Y103220D01*
X179732Y103265D01*
X179784Y103306D01*
X179839Y103344D01*
X179896Y103379D01*
X179954Y103410D01*
X180014Y103439D01*
X180076Y103463D01*
X180139Y103484D01*
X180203Y103501D01*
X180269Y103515D01*
X180334Y103524D01*
X180401Y103530D01*
X180467Y103532D01*
X179324Y102389D02*
X179326Y102315D01*
X179331Y102242D01*
X179341Y102168D01*
X179354Y102096D01*
X179370Y102024D01*
X179390Y101953D01*
X179414Y101883D01*
X179441Y101814D01*
X179472Y101747D01*
X179506Y101681D01*
X179543Y101618D01*
X179583Y101556D01*
X179627Y101496D01*
X179673Y101439D01*
X179722Y101383D01*
X179774Y101331D01*
X179829Y101281D01*
X179886Y101234D01*
X179945Y101190D01*
X180006Y101149D01*
X180070Y101111D01*
X180135Y101076D01*
X180202Y101045D01*
X180270Y101017D01*
X180340Y100992D01*
X181356Y103152D02*
X181309Y103199D01*
X181260Y103243D01*
X181208Y103284D01*
X181154Y103323D01*
X181098Y103358D01*
X181040Y103391D01*
X180981Y103420D01*
X180920Y103446D01*
X180858Y103469D01*
X180794Y103489D01*
X180730Y103504D01*
X180665Y103517D01*
X180599Y103526D01*
X180533Y103531D01*
X180467Y103533D01*
X181356Y103151D02*
X183896Y100992D01*
X183896Y103532D01*
D15*
X212090Y190500D02*
X224790Y190500D01*
X212090Y190500D02*
X205740Y196850D01*
X205740Y209550D02*
X212090Y215900D01*
X250190Y190500D02*
X256540Y196850D01*
X250190Y190500D02*
X237490Y190500D01*
X231140Y196850D01*
X231140Y209550D02*
X237490Y215900D01*
X250190Y215900D01*
X256540Y209550D01*
X231140Y196850D02*
X224790Y190500D01*
X231140Y209550D02*
X224790Y215900D01*
X212090Y215900D01*
X288290Y190500D02*
X300990Y190500D01*
X288290Y190500D02*
X281940Y196850D01*
X281940Y209550D02*
X288290Y215900D01*
X281940Y196850D02*
X275590Y190500D01*
X262890Y190500D01*
X256540Y196850D01*
X256540Y209550D02*
X262890Y215900D01*
X275590Y215900D01*
X281940Y209550D01*
X326390Y190500D02*
X332740Y196850D01*
X326390Y190500D02*
X313690Y190500D01*
X307340Y196850D01*
X307340Y209550D02*
X313690Y215900D01*
X326390Y215900D01*
X332740Y209550D01*
X307340Y196850D02*
X300990Y190500D01*
X307340Y209550D02*
X300990Y215900D01*
X288290Y215900D01*
X364490Y190500D02*
X377190Y190500D01*
X364490Y190500D02*
X358140Y196850D01*
X358140Y209550D02*
X364490Y215900D01*
X358140Y196850D02*
X351790Y190500D01*
X339090Y190500D01*
X332740Y196850D01*
X332740Y209550D02*
X339090Y215900D01*
X351790Y215900D01*
X358140Y209550D01*
X383540Y209550D02*
X383540Y196850D01*
X377190Y190500D01*
X383540Y209550D02*
X377190Y215900D01*
X364490Y215900D01*
X205740Y209550D02*
X205740Y196850D01*
D12*
X364576Y175895D02*
X364576Y172141D01*
X364574Y172076D01*
X364568Y172012D01*
X364558Y171948D01*
X364545Y171884D01*
X364527Y171822D01*
X364506Y171761D01*
X364482Y171701D01*
X364453Y171643D01*
X364421Y171586D01*
X364386Y171532D01*
X364348Y171480D01*
X364306Y171430D01*
X364262Y171383D01*
X364215Y171339D01*
X364165Y171297D01*
X364113Y171259D01*
X364059Y171224D01*
X364002Y171192D01*
X363944Y171163D01*
X363884Y171139D01*
X363823Y171118D01*
X363761Y171100D01*
X363697Y171087D01*
X363633Y171077D01*
X363569Y171071D01*
X363504Y171069D01*
X362967Y171069D01*
X367524Y174823D02*
X368864Y175895D01*
X368864Y171069D01*
X367524Y171069D02*
X370205Y171069D01*
D15*
X224790Y38100D02*
X212090Y38100D01*
X205740Y44450D01*
X205740Y57150D02*
X212090Y63500D01*
X250190Y38100D02*
X256540Y44450D01*
X250190Y38100D02*
X237490Y38100D01*
X231140Y44450D01*
X231140Y57150D02*
X237490Y63500D01*
X250190Y63500D01*
X256540Y57150D01*
X231140Y44450D02*
X224790Y38100D01*
X231140Y57150D02*
X224790Y63500D01*
X212090Y63500D01*
X288290Y38100D02*
X300990Y38100D01*
X288290Y38100D02*
X281940Y44450D01*
X281940Y57150D02*
X288290Y63500D01*
X281940Y44450D02*
X275590Y38100D01*
X262890Y38100D01*
X256540Y44450D01*
X256540Y57150D02*
X262890Y63500D01*
X275590Y63500D01*
X281940Y57150D01*
X326390Y38100D02*
X332740Y44450D01*
X326390Y38100D02*
X313690Y38100D01*
X307340Y44450D01*
X307340Y57150D02*
X313690Y63500D01*
X326390Y63500D01*
X332740Y57150D01*
X307340Y44450D02*
X300990Y38100D01*
X307340Y57150D02*
X300990Y63500D01*
X288290Y63500D01*
X364490Y38100D02*
X377190Y38100D01*
X364490Y38100D02*
X358140Y44450D01*
X358140Y57150D02*
X364490Y63500D01*
X358140Y44450D02*
X351790Y38100D01*
X339090Y38100D01*
X332740Y44450D01*
X332740Y57150D02*
X339090Y63500D01*
X351790Y63500D01*
X358140Y57150D01*
X383540Y57150D02*
X383540Y44450D01*
X377190Y38100D01*
X383540Y57150D02*
X377190Y63500D01*
X364490Y63500D01*
X205740Y57150D02*
X205740Y44450D01*
D12*
X364576Y83241D02*
X364576Y86995D01*
X364576Y83241D02*
X364574Y83176D01*
X364568Y83112D01*
X364558Y83048D01*
X364545Y82984D01*
X364527Y82922D01*
X364506Y82861D01*
X364482Y82801D01*
X364453Y82743D01*
X364421Y82686D01*
X364386Y82632D01*
X364348Y82580D01*
X364306Y82530D01*
X364262Y82483D01*
X364215Y82439D01*
X364165Y82397D01*
X364113Y82359D01*
X364059Y82324D01*
X364002Y82292D01*
X363944Y82263D01*
X363884Y82239D01*
X363823Y82218D01*
X363761Y82200D01*
X363697Y82187D01*
X363633Y82177D01*
X363569Y82171D01*
X363504Y82169D01*
X362967Y82169D01*
X368999Y86995D02*
X369067Y86993D01*
X369134Y86987D01*
X369201Y86978D01*
X369268Y86965D01*
X369333Y86948D01*
X369398Y86927D01*
X369461Y86903D01*
X369523Y86875D01*
X369583Y86844D01*
X369641Y86810D01*
X369697Y86772D01*
X369752Y86732D01*
X369803Y86688D01*
X369852Y86641D01*
X369899Y86592D01*
X369943Y86541D01*
X369983Y86486D01*
X370021Y86430D01*
X370055Y86372D01*
X370086Y86312D01*
X370114Y86250D01*
X370138Y86187D01*
X370159Y86122D01*
X370176Y86057D01*
X370189Y85990D01*
X370198Y85923D01*
X370204Y85856D01*
X370206Y85788D01*
X368999Y86995D02*
X368921Y86993D01*
X368843Y86987D01*
X368766Y86977D01*
X368689Y86964D01*
X368613Y86946D01*
X368538Y86925D01*
X368464Y86900D01*
X368392Y86871D01*
X368321Y86839D01*
X368252Y86803D01*
X368184Y86764D01*
X368119Y86721D01*
X368056Y86675D01*
X367995Y86626D01*
X367937Y86574D01*
X367882Y86519D01*
X367829Y86462D01*
X367780Y86402D01*
X367733Y86339D01*
X367690Y86275D01*
X367650Y86208D01*
X367613Y86139D01*
X367580Y86068D01*
X367550Y85996D01*
X367524Y85923D01*
X369803Y84850D02*
X369852Y84899D01*
X369899Y84951D01*
X369942Y85006D01*
X369983Y85063D01*
X370021Y85122D01*
X370055Y85183D01*
X370086Y85246D01*
X370114Y85310D01*
X370138Y85376D01*
X370158Y85442D01*
X370175Y85510D01*
X370188Y85579D01*
X370197Y85648D01*
X370203Y85718D01*
X370205Y85788D01*
X369803Y84850D02*
X367524Y82169D01*
X370205Y82169D01*
D15*
X41910Y133350D02*
X41910Y146050D01*
X41910Y133350D02*
X35560Y127000D01*
X22860Y127000D02*
X16510Y133350D01*
X35560Y127000D02*
X41910Y120650D01*
X41910Y107950D01*
X35560Y101600D01*
X22860Y101600D02*
X16510Y107950D01*
X16510Y120650D01*
X22860Y127000D01*
X22860Y152400D02*
X35560Y152400D01*
X41910Y146050D01*
X22860Y152400D02*
X16510Y146050D01*
X16510Y133350D01*
X22860Y101600D02*
X35560Y101600D01*
D12*
X51435Y113764D02*
X56261Y113764D01*
X51435Y113764D02*
X51435Y115909D01*
X53580Y115909D02*
X53580Y113764D01*
X56261Y119743D02*
X56259Y119808D01*
X56253Y119872D01*
X56243Y119936D01*
X56230Y120000D01*
X56212Y120062D01*
X56191Y120123D01*
X56167Y120183D01*
X56138Y120241D01*
X56106Y120298D01*
X56071Y120352D01*
X56033Y120404D01*
X55991Y120454D01*
X55947Y120501D01*
X55900Y120545D01*
X55850Y120587D01*
X55798Y120625D01*
X55744Y120660D01*
X55687Y120692D01*
X55629Y120721D01*
X55569Y120745D01*
X55508Y120766D01*
X55446Y120784D01*
X55382Y120797D01*
X55318Y120807D01*
X55254Y120813D01*
X55189Y120815D01*
X56261Y119743D02*
X56259Y119649D01*
X56253Y119555D01*
X56243Y119461D01*
X56230Y119368D01*
X56212Y119276D01*
X56191Y119184D01*
X56166Y119093D01*
X56137Y119003D01*
X56104Y118915D01*
X56068Y118828D01*
X56028Y118743D01*
X55985Y118659D01*
X55938Y118578D01*
X55888Y118498D01*
X55835Y118420D01*
X55778Y118345D01*
X55719Y118272D01*
X55656Y118202D01*
X55591Y118134D01*
X52507Y118268D02*
X52442Y118270D01*
X52378Y118276D01*
X52314Y118286D01*
X52250Y118299D01*
X52188Y118317D01*
X52127Y118338D01*
X52067Y118362D01*
X52009Y118391D01*
X51952Y118423D01*
X51898Y118458D01*
X51846Y118496D01*
X51796Y118538D01*
X51749Y118582D01*
X51705Y118629D01*
X51663Y118679D01*
X51625Y118731D01*
X51590Y118785D01*
X51558Y118842D01*
X51529Y118900D01*
X51505Y118960D01*
X51484Y119021D01*
X51466Y119083D01*
X51453Y119147D01*
X51443Y119211D01*
X51437Y119275D01*
X51435Y119340D01*
X51437Y119426D01*
X51442Y119512D01*
X51452Y119598D01*
X51465Y119683D01*
X51481Y119768D01*
X51501Y119852D01*
X51525Y119935D01*
X51552Y120017D01*
X51583Y120097D01*
X51617Y120177D01*
X51655Y120254D01*
X51696Y120330D01*
X51740Y120404D01*
X51787Y120477D01*
X51837Y120547D01*
X53445Y118804D02*
X53412Y118751D01*
X53375Y118700D01*
X53336Y118651D01*
X53294Y118604D01*
X53249Y118560D01*
X53202Y118519D01*
X53153Y118480D01*
X53101Y118444D01*
X53047Y118411D01*
X52992Y118382D01*
X52935Y118356D01*
X52876Y118333D01*
X52817Y118313D01*
X52756Y118297D01*
X52695Y118284D01*
X52632Y118275D01*
X52570Y118270D01*
X52507Y118268D01*
X54251Y120279D02*
X54284Y120332D01*
X54321Y120383D01*
X54360Y120432D01*
X54402Y120479D01*
X54447Y120523D01*
X54494Y120564D01*
X54543Y120603D01*
X54595Y120639D01*
X54649Y120672D01*
X54704Y120701D01*
X54761Y120727D01*
X54820Y120750D01*
X54879Y120770D01*
X54940Y120786D01*
X55001Y120799D01*
X55064Y120808D01*
X55126Y120813D01*
X55189Y120815D01*
X54250Y120279D02*
X53446Y118804D01*
X51435Y123684D02*
X56261Y123684D01*
X51435Y123684D02*
X51435Y125024D01*
X51437Y125095D01*
X51443Y125167D01*
X51452Y125237D01*
X51465Y125307D01*
X51482Y125377D01*
X51503Y125445D01*
X51527Y125512D01*
X51555Y125578D01*
X51586Y125642D01*
X51621Y125705D01*
X51659Y125765D01*
X51700Y125824D01*
X51744Y125880D01*
X51791Y125934D01*
X51840Y125985D01*
X51893Y126033D01*
X51948Y126079D01*
X52005Y126121D01*
X52065Y126161D01*
X52126Y126197D01*
X52190Y126230D01*
X52255Y126259D01*
X52321Y126285D01*
X52389Y126308D01*
X52458Y126327D01*
X52528Y126342D01*
X52598Y126353D01*
X52669Y126361D01*
X52740Y126365D01*
X52812Y126365D01*
X52883Y126361D01*
X52954Y126353D01*
X53024Y126342D01*
X53094Y126327D01*
X53163Y126308D01*
X53231Y126285D01*
X53297Y126259D01*
X53362Y126230D01*
X53426Y126197D01*
X53487Y126161D01*
X53547Y126121D01*
X53604Y126079D01*
X53659Y126033D01*
X53712Y125985D01*
X53761Y125934D01*
X53808Y125880D01*
X53852Y125824D01*
X53893Y125765D01*
X53931Y125705D01*
X53966Y125642D01*
X53997Y125578D01*
X54025Y125512D01*
X54049Y125445D01*
X54070Y125377D01*
X54087Y125307D01*
X54100Y125237D01*
X54109Y125167D01*
X54115Y125095D01*
X54117Y125024D01*
X54116Y125024D02*
X54116Y123684D01*
X54116Y125293D02*
X56261Y126365D01*
D15*
X41910Y82550D02*
X41910Y69850D01*
X35560Y63500D01*
X22860Y63500D02*
X16510Y69850D01*
X35560Y63500D02*
X41910Y57150D01*
X41910Y44450D01*
X35560Y38100D01*
X22860Y38100D02*
X16510Y44450D01*
X16510Y57150D01*
X22860Y63500D01*
X22860Y88900D02*
X35560Y88900D01*
X41910Y82550D01*
X22860Y88900D02*
X16510Y82550D01*
X16510Y69850D01*
X22860Y38100D02*
X35560Y38100D01*
D12*
X43815Y74160D02*
X48641Y74160D01*
X46496Y75769D02*
X43815Y74160D01*
X46496Y75769D02*
X43815Y77378D01*
X48641Y77378D01*
X47300Y80463D02*
X45156Y80463D01*
X45085Y80465D01*
X45013Y80471D01*
X44943Y80480D01*
X44873Y80493D01*
X44803Y80510D01*
X44735Y80531D01*
X44668Y80555D01*
X44602Y80583D01*
X44538Y80614D01*
X44475Y80649D01*
X44415Y80687D01*
X44356Y80728D01*
X44300Y80772D01*
X44246Y80819D01*
X44195Y80868D01*
X44147Y80921D01*
X44101Y80976D01*
X44059Y81033D01*
X44019Y81093D01*
X43983Y81154D01*
X43950Y81218D01*
X43921Y81283D01*
X43895Y81349D01*
X43872Y81417D01*
X43853Y81486D01*
X43838Y81556D01*
X43827Y81626D01*
X43819Y81697D01*
X43815Y81768D01*
X43815Y81840D01*
X43819Y81911D01*
X43827Y81982D01*
X43838Y82052D01*
X43853Y82122D01*
X43872Y82191D01*
X43895Y82259D01*
X43921Y82325D01*
X43950Y82390D01*
X43983Y82454D01*
X44019Y82515D01*
X44059Y82575D01*
X44101Y82632D01*
X44147Y82687D01*
X44195Y82740D01*
X44246Y82789D01*
X44300Y82836D01*
X44356Y82880D01*
X44415Y82921D01*
X44475Y82959D01*
X44538Y82994D01*
X44602Y83025D01*
X44668Y83053D01*
X44735Y83077D01*
X44803Y83098D01*
X44873Y83115D01*
X44943Y83128D01*
X45013Y83137D01*
X45085Y83143D01*
X45156Y83145D01*
X45156Y83144D02*
X47300Y83144D01*
X47300Y83145D02*
X47371Y83143D01*
X47443Y83137D01*
X47513Y83128D01*
X47583Y83115D01*
X47653Y83098D01*
X47721Y83077D01*
X47788Y83053D01*
X47854Y83025D01*
X47918Y82994D01*
X47981Y82959D01*
X48041Y82921D01*
X48100Y82880D01*
X48156Y82836D01*
X48210Y82789D01*
X48261Y82740D01*
X48309Y82687D01*
X48355Y82632D01*
X48397Y82575D01*
X48437Y82515D01*
X48473Y82454D01*
X48506Y82390D01*
X48535Y82325D01*
X48561Y82259D01*
X48584Y82191D01*
X48603Y82122D01*
X48618Y82052D01*
X48629Y81982D01*
X48637Y81911D01*
X48641Y81840D01*
X48641Y81768D01*
X48637Y81697D01*
X48629Y81626D01*
X48618Y81556D01*
X48603Y81486D01*
X48584Y81417D01*
X48561Y81349D01*
X48535Y81283D01*
X48506Y81218D01*
X48473Y81154D01*
X48437Y81093D01*
X48397Y81033D01*
X48355Y80976D01*
X48309Y80921D01*
X48261Y80868D01*
X48210Y80819D01*
X48156Y80772D01*
X48100Y80728D01*
X48041Y80687D01*
X47981Y80649D01*
X47918Y80614D01*
X47854Y80583D01*
X47788Y80555D01*
X47721Y80531D01*
X47653Y80510D01*
X47583Y80493D01*
X47513Y80480D01*
X47443Y80471D01*
X47371Y80465D01*
X47300Y80463D01*
X48641Y86924D02*
X43815Y86924D01*
X43815Y85584D02*
X43815Y88265D01*
D15*
X72120Y42164D02*
X105680Y42164D01*
X72120Y42164D02*
X72120Y107696D01*
X105680Y107696D01*
X105680Y42164D01*
X144400Y80000D02*
X160400Y80000D01*
X160400Y47000D02*
X144400Y47000D01*
X162900Y59500D02*
X162900Y67500D01*
X112900Y120175D02*
X112900Y133825D01*
D12*
X63881Y122825D02*
X59055Y122825D01*
X59055Y124165D01*
X59057Y124235D01*
X59062Y124305D01*
X59072Y124375D01*
X59084Y124444D01*
X59101Y124512D01*
X59121Y124579D01*
X59144Y124646D01*
X59171Y124710D01*
X59201Y124774D01*
X59235Y124836D01*
X59271Y124895D01*
X59311Y124953D01*
X59354Y125009D01*
X59399Y125062D01*
X59448Y125113D01*
X59499Y125162D01*
X59552Y125207D01*
X59608Y125250D01*
X59666Y125290D01*
X59726Y125326D01*
X59787Y125360D01*
X59851Y125390D01*
X59915Y125417D01*
X59982Y125440D01*
X60049Y125460D01*
X60117Y125477D01*
X60186Y125489D01*
X60256Y125499D01*
X60326Y125504D01*
X60396Y125506D01*
X62540Y125506D01*
X62610Y125504D01*
X62680Y125499D01*
X62750Y125489D01*
X62819Y125477D01*
X62887Y125460D01*
X62954Y125440D01*
X63021Y125417D01*
X63085Y125390D01*
X63149Y125360D01*
X63211Y125326D01*
X63270Y125290D01*
X63328Y125250D01*
X63384Y125207D01*
X63437Y125162D01*
X63488Y125113D01*
X63537Y125062D01*
X63582Y125009D01*
X63625Y124953D01*
X63665Y124895D01*
X63701Y124835D01*
X63735Y124774D01*
X63765Y124710D01*
X63792Y124646D01*
X63815Y124579D01*
X63835Y124512D01*
X63852Y124444D01*
X63864Y124375D01*
X63874Y124305D01*
X63879Y124235D01*
X63881Y124165D01*
X63881Y122825D01*
X62809Y128494D02*
X59055Y129567D01*
X62809Y128494D02*
X62809Y131175D01*
X61736Y130371D02*
X63881Y130371D01*
X178689Y173748D02*
X183515Y173748D01*
X178689Y173748D02*
X178689Y175089D01*
X178691Y175160D01*
X178697Y175232D01*
X178706Y175302D01*
X178719Y175372D01*
X178736Y175442D01*
X178757Y175510D01*
X178781Y175577D01*
X178809Y175643D01*
X178840Y175707D01*
X178875Y175770D01*
X178913Y175830D01*
X178954Y175889D01*
X178998Y175945D01*
X179045Y175999D01*
X179094Y176050D01*
X179147Y176098D01*
X179202Y176144D01*
X179259Y176186D01*
X179319Y176226D01*
X179380Y176262D01*
X179444Y176295D01*
X179509Y176324D01*
X179575Y176350D01*
X179643Y176373D01*
X179712Y176392D01*
X179782Y176407D01*
X179852Y176418D01*
X179923Y176426D01*
X179994Y176430D01*
X180066Y176430D01*
X180137Y176426D01*
X180208Y176418D01*
X180278Y176407D01*
X180348Y176392D01*
X180417Y176373D01*
X180485Y176350D01*
X180551Y176324D01*
X180616Y176295D01*
X180680Y176262D01*
X180741Y176226D01*
X180801Y176186D01*
X180858Y176144D01*
X180913Y176098D01*
X180966Y176050D01*
X181015Y175999D01*
X181062Y175945D01*
X181106Y175889D01*
X181147Y175830D01*
X181185Y175770D01*
X181220Y175707D01*
X181251Y175643D01*
X181279Y175577D01*
X181303Y175510D01*
X181324Y175442D01*
X181341Y175372D01*
X181354Y175302D01*
X181363Y175232D01*
X181369Y175160D01*
X181371Y175089D01*
X181370Y175089D02*
X181370Y173748D01*
X181370Y175357D02*
X183515Y176429D01*
X180834Y179171D02*
X180834Y180779D01*
X180836Y180844D01*
X180842Y180908D01*
X180852Y180972D01*
X180865Y181036D01*
X180883Y181098D01*
X180904Y181159D01*
X180928Y181219D01*
X180957Y181277D01*
X180989Y181334D01*
X181024Y181388D01*
X181062Y181440D01*
X181104Y181490D01*
X181148Y181537D01*
X181195Y181581D01*
X181245Y181623D01*
X181297Y181661D01*
X181351Y181696D01*
X181408Y181728D01*
X181466Y181757D01*
X181526Y181781D01*
X181587Y181802D01*
X181649Y181820D01*
X181713Y181833D01*
X181777Y181843D01*
X181841Y181849D01*
X181906Y181851D01*
X181906Y181852D02*
X182174Y181852D01*
X182245Y181850D01*
X182317Y181844D01*
X182387Y181835D01*
X182457Y181822D01*
X182527Y181805D01*
X182595Y181784D01*
X182662Y181760D01*
X182728Y181732D01*
X182792Y181701D01*
X182855Y181666D01*
X182915Y181628D01*
X182974Y181587D01*
X183030Y181543D01*
X183084Y181496D01*
X183135Y181447D01*
X183183Y181394D01*
X183229Y181339D01*
X183271Y181282D01*
X183311Y181222D01*
X183347Y181161D01*
X183380Y181097D01*
X183409Y181032D01*
X183435Y180966D01*
X183458Y180898D01*
X183477Y180829D01*
X183492Y180759D01*
X183503Y180689D01*
X183511Y180618D01*
X183515Y180547D01*
X183515Y180475D01*
X183511Y180404D01*
X183503Y180333D01*
X183492Y180263D01*
X183477Y180193D01*
X183458Y180124D01*
X183435Y180056D01*
X183409Y179990D01*
X183380Y179925D01*
X183347Y179861D01*
X183311Y179800D01*
X183271Y179740D01*
X183229Y179683D01*
X183183Y179628D01*
X183135Y179575D01*
X183084Y179526D01*
X183030Y179479D01*
X182974Y179435D01*
X182915Y179394D01*
X182855Y179356D01*
X182792Y179321D01*
X182728Y179290D01*
X182662Y179262D01*
X182595Y179238D01*
X182527Y179217D01*
X182457Y179200D01*
X182387Y179187D01*
X182317Y179178D01*
X182245Y179172D01*
X182174Y179170D01*
X182174Y179171D02*
X180834Y179171D01*
X180743Y179173D01*
X180652Y179179D01*
X180562Y179188D01*
X180471Y179202D01*
X180382Y179219D01*
X180294Y179240D01*
X180206Y179265D01*
X180119Y179294D01*
X180034Y179326D01*
X179950Y179361D01*
X179868Y179401D01*
X179788Y179443D01*
X179709Y179489D01*
X179633Y179539D01*
X179559Y179591D01*
X179486Y179647D01*
X179417Y179706D01*
X179350Y179767D01*
X179285Y179832D01*
X179224Y179899D01*
X179165Y179968D01*
X179109Y180040D01*
X179057Y180115D01*
X179007Y180191D01*
X178961Y180270D01*
X178919Y180350D01*
X178879Y180432D01*
X178844Y180516D01*
X178812Y180601D01*
X178783Y180688D01*
X178758Y180775D01*
X178737Y180864D01*
X178720Y180953D01*
X178706Y181043D01*
X178697Y181134D01*
X178691Y181225D01*
X178689Y181316D01*
D15*
X41910Y196850D02*
X41910Y209550D01*
X41910Y196850D02*
X35560Y190500D01*
X22860Y190500D02*
X16510Y196850D01*
X35560Y190500D02*
X41910Y184150D01*
X41910Y171450D01*
X35560Y165100D01*
X22860Y165100D02*
X16510Y171450D01*
X16510Y184150D01*
X22860Y190500D01*
X22860Y215900D02*
X35560Y215900D01*
X41910Y209550D01*
X22860Y215900D02*
X16510Y209550D01*
X16510Y196850D01*
X22860Y165100D02*
X35560Y165100D01*
D12*
X45960Y197551D02*
X45960Y198892D01*
X45959Y198892D02*
X45961Y198963D01*
X45967Y199035D01*
X45976Y199105D01*
X45989Y199175D01*
X46006Y199245D01*
X46027Y199313D01*
X46051Y199380D01*
X46079Y199446D01*
X46110Y199510D01*
X46145Y199573D01*
X46183Y199633D01*
X46224Y199692D01*
X46268Y199748D01*
X46315Y199802D01*
X46364Y199853D01*
X46417Y199901D01*
X46472Y199947D01*
X46529Y199989D01*
X46589Y200029D01*
X46650Y200065D01*
X46714Y200098D01*
X46779Y200127D01*
X46845Y200153D01*
X46913Y200176D01*
X46982Y200195D01*
X47052Y200210D01*
X47122Y200221D01*
X47193Y200229D01*
X47264Y200233D01*
X47336Y200233D01*
X47407Y200229D01*
X47478Y200221D01*
X47548Y200210D01*
X47618Y200195D01*
X47687Y200176D01*
X47755Y200153D01*
X47821Y200127D01*
X47886Y200098D01*
X47950Y200065D01*
X48011Y200029D01*
X48071Y199989D01*
X48128Y199947D01*
X48183Y199901D01*
X48236Y199853D01*
X48285Y199802D01*
X48332Y199748D01*
X48376Y199692D01*
X48417Y199633D01*
X48455Y199573D01*
X48490Y199510D01*
X48521Y199446D01*
X48549Y199380D01*
X48573Y199313D01*
X48594Y199245D01*
X48611Y199175D01*
X48624Y199105D01*
X48633Y199035D01*
X48639Y198963D01*
X48641Y198892D01*
X48641Y197551D01*
X43815Y197551D01*
X43815Y198892D01*
X43817Y198957D01*
X43823Y199021D01*
X43833Y199085D01*
X43846Y199149D01*
X43864Y199211D01*
X43885Y199272D01*
X43909Y199332D01*
X43938Y199390D01*
X43970Y199447D01*
X44005Y199501D01*
X44043Y199553D01*
X44085Y199603D01*
X44129Y199650D01*
X44176Y199694D01*
X44226Y199736D01*
X44278Y199774D01*
X44332Y199809D01*
X44389Y199841D01*
X44447Y199870D01*
X44507Y199894D01*
X44568Y199915D01*
X44630Y199933D01*
X44694Y199946D01*
X44758Y199956D01*
X44822Y199962D01*
X44887Y199964D01*
X44952Y199962D01*
X45016Y199956D01*
X45080Y199946D01*
X45144Y199933D01*
X45206Y199915D01*
X45267Y199894D01*
X45327Y199870D01*
X45385Y199841D01*
X45442Y199809D01*
X45496Y199774D01*
X45548Y199736D01*
X45598Y199694D01*
X45645Y199650D01*
X45689Y199603D01*
X45731Y199553D01*
X45769Y199501D01*
X45804Y199447D01*
X45836Y199390D01*
X45865Y199332D01*
X45889Y199272D01*
X45910Y199211D01*
X45928Y199149D01*
X45941Y199085D01*
X45951Y199021D01*
X45957Y198957D01*
X45959Y198892D01*
X48641Y202440D02*
X43815Y204049D01*
X48641Y205658D01*
X47435Y205256D02*
X47435Y202843D01*
X48641Y209170D02*
X43815Y209170D01*
X43815Y210510D02*
X43815Y207829D01*
X43815Y213924D02*
X48641Y213924D01*
X43815Y212584D02*
X43815Y215265D01*
X178689Y148348D02*
X183515Y148348D01*
X178689Y148348D02*
X178689Y149689D01*
X178691Y149760D01*
X178697Y149832D01*
X178706Y149902D01*
X178719Y149972D01*
X178736Y150042D01*
X178757Y150110D01*
X178781Y150177D01*
X178809Y150243D01*
X178840Y150307D01*
X178875Y150370D01*
X178913Y150430D01*
X178954Y150489D01*
X178998Y150545D01*
X179045Y150599D01*
X179094Y150650D01*
X179147Y150698D01*
X179202Y150744D01*
X179259Y150786D01*
X179319Y150826D01*
X179380Y150862D01*
X179444Y150895D01*
X179509Y150924D01*
X179575Y150950D01*
X179643Y150973D01*
X179712Y150992D01*
X179782Y151007D01*
X179852Y151018D01*
X179923Y151026D01*
X179994Y151030D01*
X180066Y151030D01*
X180137Y151026D01*
X180208Y151018D01*
X180278Y151007D01*
X180348Y150992D01*
X180417Y150973D01*
X180485Y150950D01*
X180551Y150924D01*
X180616Y150895D01*
X180680Y150862D01*
X180741Y150826D01*
X180801Y150786D01*
X180858Y150744D01*
X180913Y150698D01*
X180966Y150650D01*
X181015Y150599D01*
X181062Y150545D01*
X181106Y150489D01*
X181147Y150430D01*
X181185Y150370D01*
X181220Y150307D01*
X181251Y150243D01*
X181279Y150177D01*
X181303Y150110D01*
X181324Y150042D01*
X181341Y149972D01*
X181354Y149902D01*
X181363Y149832D01*
X181369Y149760D01*
X181371Y149689D01*
X181370Y149689D02*
X181370Y148348D01*
X181370Y149957D02*
X183515Y151029D01*
X183515Y153771D02*
X183515Y155379D01*
X183513Y155444D01*
X183507Y155508D01*
X183497Y155572D01*
X183484Y155636D01*
X183466Y155698D01*
X183445Y155759D01*
X183421Y155819D01*
X183392Y155877D01*
X183360Y155934D01*
X183325Y155988D01*
X183287Y156040D01*
X183245Y156090D01*
X183201Y156137D01*
X183154Y156181D01*
X183104Y156223D01*
X183052Y156261D01*
X182998Y156296D01*
X182941Y156328D01*
X182883Y156357D01*
X182823Y156381D01*
X182762Y156402D01*
X182700Y156420D01*
X182636Y156433D01*
X182572Y156443D01*
X182508Y156449D01*
X182443Y156451D01*
X182443Y156452D02*
X181906Y156452D01*
X181906Y156451D02*
X181841Y156449D01*
X181777Y156443D01*
X181713Y156433D01*
X181649Y156420D01*
X181587Y156402D01*
X181526Y156381D01*
X181466Y156357D01*
X181408Y156328D01*
X181351Y156296D01*
X181297Y156261D01*
X181245Y156223D01*
X181195Y156181D01*
X181148Y156137D01*
X181104Y156090D01*
X181062Y156040D01*
X181024Y155988D01*
X180989Y155934D01*
X180957Y155877D01*
X180928Y155819D01*
X180904Y155759D01*
X180883Y155698D01*
X180865Y155636D01*
X180852Y155572D01*
X180842Y155508D01*
X180836Y155444D01*
X180834Y155379D01*
X180834Y153771D01*
X178689Y153771D01*
X178689Y156452D01*
X178689Y199148D02*
X183515Y199148D01*
X178689Y199148D02*
X178689Y200489D01*
X178691Y200560D01*
X178697Y200632D01*
X178706Y200702D01*
X178719Y200772D01*
X178736Y200842D01*
X178757Y200910D01*
X178781Y200977D01*
X178809Y201043D01*
X178840Y201107D01*
X178875Y201170D01*
X178913Y201230D01*
X178954Y201289D01*
X178998Y201345D01*
X179045Y201399D01*
X179094Y201450D01*
X179147Y201498D01*
X179202Y201544D01*
X179259Y201586D01*
X179319Y201626D01*
X179380Y201662D01*
X179444Y201695D01*
X179509Y201724D01*
X179575Y201750D01*
X179643Y201773D01*
X179712Y201792D01*
X179782Y201807D01*
X179852Y201818D01*
X179923Y201826D01*
X179994Y201830D01*
X180066Y201830D01*
X180137Y201826D01*
X180208Y201818D01*
X180278Y201807D01*
X180348Y201792D01*
X180417Y201773D01*
X180485Y201750D01*
X180551Y201724D01*
X180616Y201695D01*
X180680Y201662D01*
X180741Y201626D01*
X180801Y201586D01*
X180858Y201544D01*
X180913Y201498D01*
X180966Y201450D01*
X181015Y201399D01*
X181062Y201345D01*
X181106Y201289D01*
X181147Y201230D01*
X181185Y201170D01*
X181220Y201107D01*
X181251Y201043D01*
X181279Y200977D01*
X181303Y200910D01*
X181324Y200842D01*
X181341Y200772D01*
X181354Y200702D01*
X181363Y200632D01*
X181369Y200560D01*
X181371Y200489D01*
X181370Y200489D02*
X181370Y199148D01*
X181370Y200757D02*
X183515Y201829D01*
X182443Y204571D02*
X178689Y205643D01*
X182443Y204571D02*
X182443Y207252D01*
X181370Y206448D02*
X183515Y206448D01*
X97548Y203835D02*
X97548Y199009D01*
X97548Y203835D02*
X98889Y203835D01*
X98960Y203833D01*
X99032Y203827D01*
X99102Y203818D01*
X99172Y203805D01*
X99242Y203788D01*
X99310Y203767D01*
X99377Y203743D01*
X99443Y203715D01*
X99507Y203684D01*
X99570Y203649D01*
X99630Y203611D01*
X99689Y203570D01*
X99745Y203526D01*
X99799Y203479D01*
X99850Y203430D01*
X99898Y203377D01*
X99944Y203322D01*
X99986Y203265D01*
X100026Y203205D01*
X100062Y203144D01*
X100095Y203080D01*
X100124Y203015D01*
X100150Y202949D01*
X100173Y202881D01*
X100192Y202812D01*
X100207Y202742D01*
X100218Y202672D01*
X100226Y202601D01*
X100230Y202530D01*
X100230Y202458D01*
X100226Y202387D01*
X100218Y202316D01*
X100207Y202246D01*
X100192Y202176D01*
X100173Y202107D01*
X100150Y202039D01*
X100124Y201973D01*
X100095Y201908D01*
X100062Y201844D01*
X100026Y201783D01*
X99986Y201723D01*
X99944Y201666D01*
X99898Y201611D01*
X99850Y201558D01*
X99799Y201509D01*
X99745Y201462D01*
X99689Y201418D01*
X99630Y201377D01*
X99570Y201339D01*
X99507Y201304D01*
X99443Y201273D01*
X99377Y201245D01*
X99310Y201221D01*
X99242Y201200D01*
X99172Y201183D01*
X99102Y201170D01*
X99032Y201161D01*
X98960Y201155D01*
X98889Y201153D01*
X98889Y201154D02*
X97548Y201154D01*
X99157Y201154D02*
X100229Y199009D01*
X102971Y202763D02*
X104311Y203835D01*
X104311Y199009D01*
X102971Y199009D02*
X105652Y199009D01*
X110248Y169291D02*
X110248Y164465D01*
X110248Y169291D02*
X111589Y169291D01*
X111660Y169289D01*
X111732Y169283D01*
X111802Y169274D01*
X111872Y169261D01*
X111942Y169244D01*
X112010Y169223D01*
X112077Y169199D01*
X112143Y169171D01*
X112207Y169140D01*
X112270Y169105D01*
X112330Y169067D01*
X112389Y169026D01*
X112445Y168982D01*
X112499Y168935D01*
X112550Y168886D01*
X112598Y168833D01*
X112644Y168778D01*
X112686Y168721D01*
X112726Y168661D01*
X112762Y168600D01*
X112795Y168536D01*
X112824Y168471D01*
X112850Y168405D01*
X112873Y168337D01*
X112892Y168268D01*
X112907Y168198D01*
X112918Y168128D01*
X112926Y168057D01*
X112930Y167986D01*
X112930Y167914D01*
X112926Y167843D01*
X112918Y167772D01*
X112907Y167702D01*
X112892Y167632D01*
X112873Y167563D01*
X112850Y167495D01*
X112824Y167429D01*
X112795Y167364D01*
X112762Y167300D01*
X112726Y167239D01*
X112686Y167179D01*
X112644Y167122D01*
X112598Y167067D01*
X112550Y167014D01*
X112499Y166965D01*
X112445Y166918D01*
X112389Y166874D01*
X112330Y166833D01*
X112270Y166795D01*
X112207Y166760D01*
X112143Y166729D01*
X112077Y166701D01*
X112010Y166677D01*
X111942Y166656D01*
X111872Y166639D01*
X111802Y166626D01*
X111732Y166617D01*
X111660Y166611D01*
X111589Y166609D01*
X111589Y166610D02*
X110248Y166610D01*
X111857Y166610D02*
X112929Y164465D01*
X115671Y164465D02*
X117011Y164465D01*
X117082Y164467D01*
X117154Y164473D01*
X117224Y164482D01*
X117294Y164495D01*
X117364Y164512D01*
X117432Y164533D01*
X117499Y164557D01*
X117565Y164585D01*
X117629Y164616D01*
X117692Y164651D01*
X117752Y164689D01*
X117811Y164730D01*
X117867Y164774D01*
X117921Y164821D01*
X117972Y164870D01*
X118020Y164923D01*
X118066Y164978D01*
X118108Y165035D01*
X118148Y165095D01*
X118184Y165156D01*
X118217Y165220D01*
X118246Y165285D01*
X118272Y165351D01*
X118295Y165419D01*
X118314Y165488D01*
X118329Y165558D01*
X118340Y165628D01*
X118348Y165699D01*
X118352Y165770D01*
X118352Y165842D01*
X118348Y165913D01*
X118340Y165984D01*
X118329Y166054D01*
X118314Y166124D01*
X118295Y166193D01*
X118272Y166261D01*
X118246Y166327D01*
X118217Y166392D01*
X118184Y166456D01*
X118148Y166517D01*
X118108Y166577D01*
X118066Y166634D01*
X118020Y166689D01*
X117972Y166742D01*
X117921Y166791D01*
X117867Y166838D01*
X117811Y166882D01*
X117752Y166923D01*
X117692Y166961D01*
X117629Y166996D01*
X117565Y167027D01*
X117499Y167055D01*
X117432Y167079D01*
X117364Y167100D01*
X117294Y167117D01*
X117224Y167130D01*
X117154Y167139D01*
X117082Y167145D01*
X117011Y167147D01*
X117279Y169291D02*
X115671Y169291D01*
X117279Y169291D02*
X117344Y169289D01*
X117408Y169283D01*
X117472Y169273D01*
X117536Y169260D01*
X117598Y169242D01*
X117659Y169221D01*
X117719Y169197D01*
X117777Y169168D01*
X117834Y169136D01*
X117888Y169101D01*
X117940Y169063D01*
X117990Y169021D01*
X118037Y168977D01*
X118081Y168930D01*
X118123Y168880D01*
X118161Y168828D01*
X118196Y168774D01*
X118228Y168717D01*
X118257Y168659D01*
X118281Y168599D01*
X118302Y168538D01*
X118320Y168476D01*
X118333Y168412D01*
X118343Y168348D01*
X118349Y168284D01*
X118351Y168219D01*
X118349Y168154D01*
X118343Y168090D01*
X118333Y168026D01*
X118320Y167962D01*
X118302Y167900D01*
X118281Y167839D01*
X118257Y167779D01*
X118228Y167721D01*
X118196Y167664D01*
X118161Y167610D01*
X118123Y167558D01*
X118081Y167508D01*
X118037Y167461D01*
X117990Y167417D01*
X117940Y167375D01*
X117888Y167337D01*
X117834Y167302D01*
X117777Y167270D01*
X117719Y167241D01*
X117659Y167217D01*
X117598Y167196D01*
X117536Y167178D01*
X117472Y167165D01*
X117408Y167155D01*
X117344Y167149D01*
X117279Y167147D01*
X117279Y167146D02*
X116207Y167146D01*
X86118Y169291D02*
X86118Y164465D01*
X86118Y169291D02*
X87459Y169291D01*
X87530Y169289D01*
X87602Y169283D01*
X87672Y169274D01*
X87742Y169261D01*
X87812Y169244D01*
X87880Y169223D01*
X87947Y169199D01*
X88013Y169171D01*
X88077Y169140D01*
X88140Y169105D01*
X88200Y169067D01*
X88259Y169026D01*
X88315Y168982D01*
X88369Y168935D01*
X88420Y168886D01*
X88468Y168833D01*
X88514Y168778D01*
X88556Y168721D01*
X88596Y168661D01*
X88632Y168600D01*
X88665Y168536D01*
X88694Y168471D01*
X88720Y168405D01*
X88743Y168337D01*
X88762Y168268D01*
X88777Y168198D01*
X88788Y168128D01*
X88796Y168057D01*
X88800Y167986D01*
X88800Y167914D01*
X88796Y167843D01*
X88788Y167772D01*
X88777Y167702D01*
X88762Y167632D01*
X88743Y167563D01*
X88720Y167495D01*
X88694Y167429D01*
X88665Y167364D01*
X88632Y167300D01*
X88596Y167239D01*
X88556Y167179D01*
X88514Y167122D01*
X88468Y167067D01*
X88420Y167014D01*
X88369Y166965D01*
X88315Y166918D01*
X88259Y166874D01*
X88200Y166833D01*
X88140Y166795D01*
X88077Y166760D01*
X88013Y166729D01*
X87947Y166701D01*
X87880Y166677D01*
X87812Y166656D01*
X87742Y166639D01*
X87672Y166626D01*
X87602Y166617D01*
X87530Y166611D01*
X87459Y166609D01*
X87459Y166610D02*
X86118Y166610D01*
X87727Y166610D02*
X88799Y164465D01*
X93015Y169291D02*
X93083Y169289D01*
X93150Y169283D01*
X93217Y169274D01*
X93284Y169261D01*
X93349Y169244D01*
X93414Y169223D01*
X93477Y169199D01*
X93539Y169171D01*
X93599Y169140D01*
X93657Y169106D01*
X93713Y169068D01*
X93768Y169028D01*
X93819Y168984D01*
X93868Y168937D01*
X93915Y168888D01*
X93959Y168837D01*
X93999Y168782D01*
X94037Y168726D01*
X94071Y168668D01*
X94102Y168608D01*
X94130Y168546D01*
X94154Y168483D01*
X94175Y168418D01*
X94192Y168353D01*
X94205Y168286D01*
X94214Y168219D01*
X94220Y168152D01*
X94222Y168084D01*
X93015Y169291D02*
X92937Y169289D01*
X92859Y169283D01*
X92782Y169273D01*
X92705Y169260D01*
X92629Y169242D01*
X92554Y169221D01*
X92480Y169196D01*
X92408Y169167D01*
X92337Y169135D01*
X92268Y169099D01*
X92200Y169060D01*
X92135Y169017D01*
X92072Y168971D01*
X92011Y168922D01*
X91953Y168870D01*
X91898Y168815D01*
X91845Y168758D01*
X91796Y168698D01*
X91749Y168635D01*
X91706Y168571D01*
X91666Y168504D01*
X91629Y168435D01*
X91596Y168364D01*
X91566Y168292D01*
X91540Y168219D01*
X93820Y167146D02*
X93869Y167195D01*
X93916Y167247D01*
X93959Y167302D01*
X94000Y167359D01*
X94038Y167418D01*
X94072Y167479D01*
X94103Y167542D01*
X94131Y167606D01*
X94155Y167672D01*
X94175Y167738D01*
X94192Y167806D01*
X94205Y167875D01*
X94214Y167944D01*
X94220Y168014D01*
X94222Y168084D01*
X93820Y167146D02*
X91541Y164465D01*
X94222Y164465D01*
X62004Y164465D02*
X60932Y164465D01*
X60867Y164467D01*
X60803Y164473D01*
X60739Y164483D01*
X60675Y164496D01*
X60613Y164514D01*
X60552Y164535D01*
X60492Y164559D01*
X60434Y164588D01*
X60377Y164620D01*
X60323Y164655D01*
X60271Y164693D01*
X60221Y164735D01*
X60174Y164779D01*
X60130Y164826D01*
X60088Y164876D01*
X60050Y164928D01*
X60015Y164982D01*
X59983Y165039D01*
X59954Y165097D01*
X59930Y165157D01*
X59909Y165218D01*
X59891Y165280D01*
X59878Y165344D01*
X59868Y165408D01*
X59862Y165472D01*
X59860Y165537D01*
X59859Y165537D02*
X59859Y168219D01*
X59860Y168219D02*
X59862Y168284D01*
X59868Y168348D01*
X59878Y168412D01*
X59891Y168476D01*
X59909Y168538D01*
X59930Y168599D01*
X59954Y168659D01*
X59983Y168717D01*
X60015Y168774D01*
X60050Y168828D01*
X60088Y168880D01*
X60130Y168930D01*
X60174Y168977D01*
X60221Y169021D01*
X60271Y169063D01*
X60323Y169101D01*
X60377Y169136D01*
X60434Y169168D01*
X60492Y169197D01*
X60552Y169221D01*
X60613Y169242D01*
X60675Y169260D01*
X60739Y169273D01*
X60803Y169283D01*
X60867Y169289D01*
X60932Y169291D01*
X62004Y169291D01*
X65934Y169291D02*
X66002Y169289D01*
X66069Y169283D01*
X66136Y169274D01*
X66203Y169261D01*
X66268Y169244D01*
X66333Y169223D01*
X66396Y169199D01*
X66458Y169171D01*
X66518Y169140D01*
X66576Y169106D01*
X66632Y169068D01*
X66687Y169028D01*
X66738Y168984D01*
X66787Y168937D01*
X66834Y168888D01*
X66878Y168837D01*
X66918Y168782D01*
X66956Y168726D01*
X66990Y168668D01*
X67021Y168608D01*
X67049Y168546D01*
X67073Y168483D01*
X67094Y168418D01*
X67111Y168353D01*
X67124Y168286D01*
X67133Y168219D01*
X67139Y168152D01*
X67141Y168084D01*
X65934Y169291D02*
X65856Y169289D01*
X65778Y169283D01*
X65701Y169273D01*
X65624Y169260D01*
X65548Y169242D01*
X65473Y169221D01*
X65399Y169196D01*
X65327Y169167D01*
X65256Y169135D01*
X65187Y169099D01*
X65119Y169060D01*
X65054Y169017D01*
X64991Y168971D01*
X64930Y168922D01*
X64872Y168870D01*
X64817Y168815D01*
X64764Y168758D01*
X64715Y168698D01*
X64668Y168635D01*
X64625Y168571D01*
X64585Y168504D01*
X64548Y168435D01*
X64515Y168364D01*
X64485Y168292D01*
X64459Y168219D01*
X66739Y167146D02*
X66788Y167195D01*
X66835Y167247D01*
X66878Y167302D01*
X66919Y167359D01*
X66957Y167418D01*
X66991Y167479D01*
X67022Y167542D01*
X67050Y167606D01*
X67074Y167672D01*
X67094Y167738D01*
X67111Y167806D01*
X67124Y167875D01*
X67133Y167944D01*
X67139Y168014D01*
X67141Y168084D01*
X66739Y167146D02*
X64460Y164465D01*
X67141Y164465D01*
X183515Y124234D02*
X183515Y123162D01*
X183513Y123097D01*
X183507Y123033D01*
X183497Y122969D01*
X183484Y122905D01*
X183466Y122843D01*
X183445Y122782D01*
X183421Y122722D01*
X183392Y122664D01*
X183360Y122607D01*
X183325Y122553D01*
X183287Y122501D01*
X183245Y122451D01*
X183201Y122404D01*
X183154Y122360D01*
X183104Y122318D01*
X183052Y122280D01*
X182998Y122245D01*
X182941Y122213D01*
X182883Y122184D01*
X182823Y122160D01*
X182762Y122139D01*
X182700Y122121D01*
X182636Y122108D01*
X182572Y122098D01*
X182508Y122092D01*
X182443Y122090D01*
X182443Y122089D02*
X179761Y122089D01*
X179696Y122091D01*
X179632Y122097D01*
X179568Y122107D01*
X179504Y122120D01*
X179442Y122138D01*
X179381Y122159D01*
X179321Y122184D01*
X179262Y122212D01*
X179206Y122244D01*
X179151Y122279D01*
X179099Y122317D01*
X179049Y122359D01*
X179002Y122403D01*
X178958Y122450D01*
X178916Y122500D01*
X178878Y122552D01*
X178843Y122607D01*
X178811Y122663D01*
X178783Y122722D01*
X178758Y122781D01*
X178737Y122843D01*
X178719Y122905D01*
X178706Y122969D01*
X178696Y123033D01*
X178690Y123097D01*
X178688Y123162D01*
X178689Y123162D02*
X178689Y124234D01*
X179761Y126690D02*
X178689Y128030D01*
X183515Y128030D01*
X183515Y126690D02*
X183515Y129371D01*
M02*
