M48
;GenerationSoftware,Autodesk,EAGLE,9.6.2*%
;CreationDate,2024-04-18T19:51:52Z*%
FMAT,2
ICI,OFF
METRIC,TZ,000.000
T3C0.350
T2C1.000
T1C1.016
%
G90
M71
T1
X2921Y17780
X2921Y20320
X2921Y5080
X2921Y7620
X2921Y11430
X2921Y13970
X21844Y5080
X24384Y5080
X26924Y5080
X29464Y5080
X32004Y5080
X34544Y5080
X37084Y5080
X21844Y20320
X24384Y20320
X26924Y20320
X29464Y20320
X32004Y20320
X34544Y20320
X37084Y20320
T2
X8890Y6120
X8890Y9120
T3
X6350Y11430
X19050Y20320
X13970Y8890
X8890Y16510
X22860Y11430
X22860Y7620
X17780Y7620
X20320Y13970
X11430Y16510
X21590Y8890
X15240Y8890
X25400Y11430
X25400Y7620
X15240Y5080
X6350Y16510
X19050Y11430
X15240Y12700
X5080Y12700
X6350Y20320
X15240Y6350
X19050Y5080
X10160Y20320
X19050Y15240
X15240Y17780
M30